<svg id="svg" version="1.1" xmlns="http://www.w3.org/2000/svg" xmlns:xlink="http://www.w3.org/1999/xlink" width="400" height="400" viewBox="0, 0, 400,400"><g id="svgg"><path id="path0" d="M141.800 73.594 C 139.505 73.855,134.358 75.606,133.295 76.487 C 133.018 76.717,132.281 77.197,131.658 77.553 C 127.989 79.649,127.829 79.773,123.598 83.800 C 120.814 86.449,115.476 93.420,114.561 95.600 C 114.423 95.930,113.745 97.370,113.055 98.800 L 111.800 101.400 111.800 176.200 L 111.800 251.000 112.940 253.400 C 113.568 254.720,114.337 256.340,114.650 257.000 C 116.174 260.214,122.752 267.651,126.000 269.831 C 126.770 270.348,128.120 271.276,129.000 271.894 C 129.880 272.512,131.770 273.573,133.200 274.253 C 134.630 274.933,137.060 276.084,138.600 276.812 C 140.140 277.539,141.829 278.464,142.354 278.867 C 143.269 279.570,145.701 279.600,201.436 279.600 L 259.564 279.600 263.282 278.543 C 265.327 277.962,267.450 277.175,268.000 276.795 C 268.550 276.416,269.429 275.972,269.953 275.809 C 272.633 274.976,281.424 266.800,285.315 261.523 C 288.174 257.646,289.166 255.800,290.973 251.000 L 292.026 248.200 291.913 175.182 C 291.811 109.078,291.739 102.072,291.161 101.182 C 290.809 100.642,290.289 99.493,290.006 98.628 C 289.562 97.273,288.803 95.879,286.292 91.800 C 284.673 89.168,276.478 80.598,274.497 79.463 C 274.052 79.208,272.589 78.331,271.245 77.513 C 267.827 75.433,263.979 73.972,260.859 73.569 C 257.749 73.168,145.348 73.192,141.800 73.594 M271.425 110.826 C 275.190 111.805,277.352 113.594,279.234 117.289 L 280.400 119.577 280.400 150.689 L 280.399 181.800 279.244 184.200 C 278.533 185.678,277.145 187.522,275.632 189.000 L 273.175 191.400 205.353 191.600 C 136.059 191.804,134.605 191.779,132.893 190.322 C 132.512 189.997,131.658 189.518,130.995 189.257 C 129.421 188.636,126.076 185.510,124.360 183.055 L 123.000 181.111 122.873 151.655 C 122.725 117.116,122.530 119.160,126.318 115.516 C 132.519 109.550,125.131 110.079,202.825 110.036 C 267.697 110.000,268.276 110.007,271.425 110.826 M148.729 207.878 C 155.603 211.839,158.168 217.481,156.828 225.689 C 156.190 229.593,152.013 235.183,149.214 235.881 C 148.656 236.019,147.480 236.459,146.600 236.858 C 139.750 239.960,128.736 233.911,127.256 226.233 C 125.653 217.915,128.130 211.894,134.691 208.164 C 137.991 206.289,145.697 206.131,148.729 207.878 M268.405 208.067 C 277.749 212.965,279.452 225.818,271.760 233.388 C 270.518 234.610,269.030 235.728,268.451 235.872 C 267.873 236.017,266.624 236.478,265.675 236.897 C 257.190 240.646,245.609 231.982,245.598 221.875 C 245.586 210.715,258.519 202.885,268.405 208.067 M156.990 285.216 C 156.849 285.445,156.073 286.075,155.266 286.615 C 153.246 287.970,151.292 289.354,149.400 290.773 C 148.520 291.433,146.630 292.795,145.200 293.800 C 143.770 294.805,141.880 296.168,141.000 296.828 C 140.120 297.487,138.770 298.471,138.000 299.012 C 137.230 299.554,135.970 300.448,135.200 301.000 C 134.430 301.552,133.170 302.452,132.400 303.000 C 131.630 303.548,130.431 304.403,129.736 304.899 C 129.040 305.394,127.330 306.650,125.936 307.690 C 119.494 312.490,117.092 314.254,114.716 315.927 C 112.573 317.436,107.508 321.080,106.000 322.197 C 103.701 323.900,101.713 325.344,100.316 326.324 C 94.653 330.296,92.839 332.001,94.277 331.999 C 94.675 331.998,106.520 332.133,120.600 332.299 C 134.680 332.464,183.010 332.600,228.000 332.600 C 318.396 332.600,311.904 332.809,307.555 330.033 C 305.068 328.446,303.629 327.439,299.200 324.187 C 297.550 322.976,295.570 321.539,294.800 320.994 C 294.030 320.449,292.770 319.552,292.000 319.000 C 291.230 318.448,289.970 317.548,289.200 317.000 C 288.430 316.452,287.170 315.552,286.400 315.000 C 285.630 314.448,284.370 313.548,283.600 313.000 C 282.830 312.452,281.570 311.552,280.800 311.000 C 280.030 310.448,278.770 309.554,278.000 309.012 C 277.230 308.471,275.880 307.486,275.000 306.825 C 274.120 306.164,272.950 305.305,272.400 304.917 C 271.850 304.528,271.162 303.983,270.871 303.705 C 270.581 303.427,270.193 303.200,270.009 303.200 C 269.826 303.200,268.894 302.569,267.938 301.797 C 266.982 301.026,266.006 300.237,265.769 300.046 C 265.531 299.854,264.631 299.231,263.769 298.662 C 262.906 298.093,261.526 297.126,260.702 296.514 C 259.878 295.901,258.168 294.681,256.902 293.802 C 255.636 292.923,253.809 291.573,252.841 290.802 C 251.874 290.031,250.500 289.040,249.788 288.600 C 247.241 287.026,245.263 285.626,245.010 285.216 C 244.609 284.567,229.600 284.652,229.600 285.304 C 229.600 285.581,230.005 286.055,230.500 286.359 C 234.716 288.939,237.009 291.631,235.920 292.720 C 235.136 293.504,169.068 293.405,168.416 292.619 C 167.544 291.569,168.160 290.682,171.469 288.226 C 173.266 286.892,174.751 285.575,174.768 285.300 C 174.810 284.650,157.391 284.568,156.990 285.216 M250.877 301.509 C 258.617 306.008,262.874 309.825,260.967 310.557 C 260.140 310.875,144.660 310.875,143.833 310.557 C 142.384 310.001,143.704 307.795,146.649 305.851 C 147.502 305.287,149.364 303.928,150.787 302.829 C 154.125 300.254,148.464 300.515,202.000 300.464 L 249.000 300.419 250.877 301.509 M278.640 318.333 C 279.498 318.957,281.550 320.694,283.200 322.195 C 287.281 325.906,289.771 328.071,290.875 328.867 C 291.632 329.413,291.719 329.668,291.357 330.267 C 290.931 330.970,116.861 332.008,114.277 331.323 C 112.828 330.939,113.574 328.755,115.616 327.403 C 116.616 326.741,118.560 325.255,119.937 324.100 C 121.315 322.945,122.573 322.000,122.734 322.000 C 122.894 322.000,123.830 321.215,124.813 320.255 C 125.796 319.295,127.140 318.222,127.800 317.871 C 128.886 317.293,136.028 317.231,203.040 317.216 L 277.080 317.200 278.640 318.333 " stroke="none" fill="#fafafc" fill-rule="evenodd"></path><path id="path1" d="M183.586 0.132 C 183.468 0.258,180.543 0.398,177.086 0.443 C 171.636 0.513,170.799 0.609,170.794 1.162 C 170.790 1.531,170.664 1.631,170.494 1.400 C 170.014 0.747,169.206 0.751,169.457 1.405 C 169.601 1.780,169.448 2.000,169.043 2.000 C 168.689 2.000,168.400 2.180,168.400 2.400 C 168.400 2.645,166.472 2.800,163.416 2.800 C 159.010 2.800,158.348 2.889,157.713 3.570 C 157.144 4.182,156.266 4.382,153.461 4.541 C 149.726 4.752,149.413 4.859,149.405 5.928 C 149.401 6.478,148.926 6.618,146.800 6.698 C 143.375 6.828,141.527 7.158,141.795 7.593 C 142.096 8.078,141.537 8.362,140.055 8.475 C 139.365 8.527,138.800 8.681,138.800 8.816 C 138.800 8.951,138.257 8.982,137.594 8.884 C 136.648 8.746,136.210 8.933,135.565 9.754 C 134.874 10.633,134.422 10.800,132.745 10.800 C 130.628 10.800,129.022 11.388,129.412 12.020 C 129.542 12.229,129.367 12.400,129.024 12.400 C 128.681 12.400,128.400 12.580,128.400 12.800 C 128.400 13.020,127.596 13.200,126.614 13.200 C 125.238 13.200,124.730 13.383,124.400 14.000 C 124.076 14.606,123.562 14.800,122.285 14.800 C 120.928 14.800,120.375 15.035,119.465 16.000 C 118.572 16.945,117.992 17.200,116.729 17.200 C 115.462 17.200,115.081 17.368,114.916 18.000 C 114.747 18.645,114.370 18.800,112.975 18.800 C 111.480 18.800,111.172 18.950,110.719 19.900 C 110.302 20.774,109.877 21.026,108.653 21.127 C 107.529 21.219,107.056 21.463,106.909 22.027 C 106.755 22.615,106.353 22.800,105.229 22.800 C 104.050 22.800,103.571 23.043,102.863 24.000 C 102.279 24.791,101.626 25.200,100.951 25.200 C 100.262 25.200,99.856 25.462,99.716 26.000 C 99.590 26.482,99.167 26.802,98.653 26.805 C 96.994 26.816,96.065 27.287,95.826 28.238 C 95.642 28.973,95.315 29.200,94.441 29.200 C 93.719 29.200,93.090 29.513,92.733 30.051 C 92.422 30.518,91.725 30.945,91.184 31.000 C 90.643 31.054,90.085 31.121,89.943 31.149 C 89.802 31.177,89.577 31.639,89.442 32.175 C 89.255 32.918,88.889 33.179,87.899 33.275 C 87.184 33.344,86.584 33.580,86.565 33.800 C 86.482 34.769,85.892 35.513,85.281 35.424 C 84.582 35.321,83.600 36.079,83.600 36.721 C 83.600 36.930,83.060 37.208,82.400 37.340 C 81.696 37.481,81.200 37.832,81.200 38.190 C 81.200 38.526,80.949 38.800,80.642 38.800 C 80.336 38.800,79.519 39.328,78.828 39.974 C 78.136 40.620,77.172 41.205,76.685 41.274 C 76.130 41.353,75.754 41.726,75.675 42.277 C 75.590 42.875,75.103 43.302,74.147 43.617 C 73.375 43.872,72.647 44.332,72.529 44.640 C 72.411 44.948,71.989 45.200,71.591 45.200 C 71.171 45.200,70.644 45.705,70.336 46.400 C 70.037 47.076,69.498 47.600,69.102 47.600 C 68.675 47.600,68.400 47.903,68.400 48.373 C 68.400 48.920,68.077 49.184,67.300 49.273 C 66.436 49.373,66.173 49.636,66.073 50.500 C 65.973 51.376,65.741 51.600,64.936 51.600 C 64.260 51.600,63.855 51.866,63.715 52.404 C 63.599 52.847,63.068 53.318,62.535 53.452 C 62.001 53.586,61.632 53.897,61.715 54.144 C 61.890 54.670,61.288 55.336,60.300 55.710 C 59.915 55.856,59.600 56.251,59.600 56.587 C 59.600 57.148,59.116 57.385,58.269 57.237 C 58.087 57.205,57.733 57.724,57.481 58.390 C 57.209 59.113,56.738 59.600,56.312 59.600 C 55.921 59.600,55.600 59.883,55.600 60.229 C 55.600 61.179,54.673 62.000,53.600 62.000 C 53.380 62.000,53.221 62.135,53.247 62.300 C 53.378 63.130,53.140 63.600,52.587 63.600 C 52.251 63.600,51.856 63.915,51.710 64.300 C 51.355 65.236,50.570 66.000,49.962 66.000 C 49.690 66.000,49.578 66.111,49.714 66.248 C 50.019 66.552,49.245 67.352,48.300 67.710 C 47.887 67.866,47.600 68.391,47.600 68.987 C 47.600 69.712,47.386 70.000,46.847 70.000 C 46.421 70.000,45.999 70.361,45.876 70.830 C 45.757 71.286,45.277 71.759,44.809 71.882 C 44.302 72.014,43.874 72.526,43.749 73.152 C 43.489 74.443,42.823 75.366,41.900 75.712 C 41.487 75.867,41.200 76.390,41.200 76.987 C 41.200 77.721,40.987 78.000,40.428 78.000 C 39.934 78.000,39.606 78.325,39.518 78.900 C 39.442 79.401,39.142 79.748,38.841 79.684 C 38.501 79.610,38.389 79.795,38.538 80.184 C 38.682 80.558,38.555 80.800,38.214 80.800 C 37.906 80.800,37.550 81.128,37.422 81.529 C 37.295 81.931,36.788 82.692,36.295 83.222 C 35.803 83.751,35.398 84.398,35.395 84.659 C 35.392 84.919,34.942 85.593,34.395 86.157 C 32.784 87.814,32.000 88.780,32.003 89.100 C 32.005 89.265,31.735 89.717,31.403 90.105 C 31.071 90.492,30.800 91.146,30.800 91.558 C 30.800 91.970,30.441 92.401,30.000 92.516 C 29.549 92.634,29.200 93.062,29.200 93.496 C 29.200 93.920,29.065 94.402,28.900 94.567 C 28.735 94.732,28.592 95.077,28.582 95.333 C 28.572 95.590,28.350 95.756,28.089 95.702 C 27.828 95.649,27.500 96.058,27.361 96.612 C 27.222 97.166,26.762 97.862,26.337 98.159 C 25.913 98.456,25.458 99.363,25.327 100.175 C 25.188 101.029,24.605 102.133,23.943 102.795 C 23.156 103.583,22.800 104.342,22.800 105.236 C 22.800 105.949,22.681 106.414,22.536 106.269 C 22.112 105.846,21.228 107.397,21.126 108.743 C 21.038 109.893,20.728 110.273,19.845 110.315 C 19.223 110.344,18.812 111.355,18.806 112.873 C 18.801 113.992,18.607 114.407,18.000 114.600 C 17.403 114.790,17.200 115.205,17.200 116.240 C 17.200 117.254,16.877 117.943,16.000 118.800 C 15.144 119.636,14.800 120.353,14.800 121.298 C 14.800 122.127,14.501 122.878,14.000 123.307 C 13.486 123.747,13.200 124.487,13.200 125.377 C 13.200 127.054,12.462 128.800,11.754 128.800 C 11.463 128.800,11.137 129.457,11.009 130.300 C 10.884 131.125,10.589 132.340,10.354 133.000 C 10.118 133.660,9.913 134.425,9.896 134.700 C 9.880 134.975,9.604 135.200,9.282 135.200 C 8.824 135.200,8.753 135.547,8.956 136.813 C 9.182 138.230,9.080 138.549,8.113 139.446 C 7.134 140.353,6.995 140.803,6.858 143.513 C 6.724 146.166,6.579 146.659,5.731 147.326 C 5.196 147.747,4.856 148.189,4.975 148.309 C 5.095 148.428,4.993 148.767,4.749 149.061 C 4.505 149.355,4.412 150.002,4.543 150.498 C 4.994 152.213,4.348 155.688,3.539 155.900 C 2.877 156.073,2.800 156.551,2.800 160.475 C 2.800 164.617,2.297 166.564,1.448 165.714 C 1.311 165.578,1.177 165.677,1.150 165.933 C 1.065 166.724,0.996 166.985,0.761 167.400 C -0.199 169.097,-0.002 231.500,0.968 232.761 C 1.206 233.070,1.355 233.385,1.300 233.461 C 1.030 233.835,1.247 234.418,1.580 234.212 C 2.345 233.740,2.761 235.570,2.827 239.701 C 2.887 243.475,2.976 243.953,3.647 244.128 C 4.253 244.287,4.415 244.743,4.475 246.463 C 4.569 249.138,4.664 250.487,4.793 251.000 C 4.849 251.220,4.877 251.525,4.855 251.677 C 4.833 251.829,5.249 252.295,5.779 252.712 C 6.621 253.374,6.754 253.841,6.838 256.413 C 6.924 259.073,7.045 259.466,8.095 260.493 C 9.029 261.406,9.208 261.852,9.008 262.765 C 8.849 263.490,8.957 264.100,9.308 264.451 C 9.610 264.753,9.877 265.090,9.900 265.200 C 9.924 265.310,10.136 265.907,10.372 266.526 C 10.607 267.145,10.800 268.283,10.800 269.055 C 10.800 270.409,11.645 271.821,12.152 271.314 C 12.289 271.178,12.400 271.446,12.400 271.910 C 12.400 272.373,12.580 272.864,12.800 273.000 C 13.020 273.136,13.200 273.868,13.200 274.628 C 13.200 275.513,13.487 276.253,14.000 276.693 C 14.501 277.122,14.800 277.873,14.800 278.702 C 14.800 279.647,15.144 280.364,16.000 281.200 C 16.878 282.059,17.200 282.746,17.200 283.764 C 17.200 284.691,17.461 285.337,17.982 285.703 C 18.461 286.038,18.802 286.795,18.859 287.652 C 18.943 288.893,19.812 290.305,20.390 290.140 C 20.506 290.107,20.555 290.242,20.500 290.440 C 20.445 290.638,20.580 290.800,20.800 290.800 C 21.020 290.800,21.200 291.222,21.200 291.738 C 21.200 292.254,21.560 293.002,22.000 293.400 C 22.443 293.801,22.800 294.632,22.800 295.262 C 22.800 295.888,22.991 296.400,23.224 296.400 C 23.457 296.400,23.553 296.553,23.437 296.740 C 23.322 296.927,23.671 297.317,24.214 297.607 C 24.965 298.010,25.200 298.459,25.200 299.496 C 25.200 300.770,25.672 301.627,26.593 302.029 C 26.810 302.123,26.930 302.533,26.862 302.940 C 26.791 303.354,27.122 303.950,27.610 304.292 C 28.091 304.629,28.738 305.511,29.048 306.252 C 29.357 306.994,29.878 307.600,30.205 307.600 C 30.573 307.600,30.800 307.982,30.800 308.600 C 30.800 309.150,30.980 309.600,31.200 309.600 C 31.420 309.600,31.600 309.862,31.600 310.182 C 31.600 310.725,32.327 311.665,34.499 313.929 C 34.989 314.440,35.392 315.160,35.395 315.529 C 35.398 315.918,35.778 316.254,36.300 316.328 C 37.002 316.428,37.200 316.716,37.200 317.641 C 37.200 318.448,37.447 318.917,37.976 319.113 C 38.403 319.271,38.808 319.580,38.876 319.800 C 38.944 320.020,39.135 320.155,39.300 320.100 C 39.465 320.045,39.600 320.377,39.600 320.837 C 39.600 321.338,39.921 321.759,40.400 321.884 C 40.840 321.999,41.200 322.388,41.200 322.748 C 41.200 323.108,41.740 323.912,42.400 324.535 C 43.422 325.499,43.881 326.491,43.500 326.910 C 43.300 327.129,44.610 328.322,44.985 328.262 C 45.197 328.228,45.555 328.605,45.780 329.100 C 46.005 329.595,46.507 330.000,46.895 330.000 C 47.383 330.000,47.600 330.312,47.600 331.013 C 47.600 331.569,47.877 332.131,48.216 332.262 C 49.064 332.587,51.397 334.895,51.715 335.722 C 51.858 336.095,52.251 336.400,52.587 336.400 C 52.924 336.400,53.200 336.683,53.200 337.029 C 53.200 337.632,54.141 338.844,54.586 338.814 C 55.427 338.758,55.600 338.893,55.600 339.600 C 55.600 340.049,55.867 340.400,56.209 340.400 C 56.543 340.400,57.024 340.854,57.277 341.410 C 57.530 341.965,58.156 342.524,58.669 342.653 C 59.233 342.795,59.600 343.185,59.600 343.643 C 59.600 344.065,59.879 344.400,60.229 344.400 C 61.025 344.400,61.911 345.267,61.715 345.856 C 61.632 346.103,62.001 346.414,62.535 346.548 C 63.068 346.682,63.595 347.138,63.706 347.562 C 63.817 347.986,64.326 348.392,64.837 348.466 C 65.444 348.553,65.848 348.948,66.000 349.600 C 66.152 350.252,66.556 350.647,67.163 350.734 C 67.674 350.808,68.183 351.213,68.293 351.634 C 68.403 352.055,68.832 352.400,69.247 352.400 C 69.924 352.400,70.187 352.831,70.045 353.707 C 70.017 353.877,70.491 354.234,71.098 354.501 C 71.704 354.769,72.421 355.285,72.691 355.648 C 72.961 356.011,73.642 356.424,74.205 356.565 C 74.781 356.710,75.393 357.255,75.604 357.811 C 75.867 358.503,76.284 358.800,76.990 358.800 C 77.590 358.800,78.000 359.028,78.000 359.361 C 78.000 359.669,78.675 360.272,79.500 360.700 C 80.325 361.128,81.000 361.731,81.000 362.039 C 81.000 362.374,81.501 362.649,82.245 362.721 C 83.119 362.806,83.627 363.142,83.947 363.844 C 84.198 364.395,84.540 364.761,84.706 364.658 C 84.873 364.555,85.356 364.725,85.781 365.035 C 86.205 365.346,86.394 365.600,86.200 365.600 C 86.006 365.600,86.196 365.864,86.624 366.187 C 87.051 366.510,87.802 366.780,88.292 366.787 C 88.905 366.796,89.263 367.113,89.436 367.800 C 89.574 368.350,89.892 368.827,90.143 368.861 C 90.395 368.894,90.780 368.964,91.000 369.015 C 91.220 369.066,91.745 369.128,92.167 369.154 C 92.588 369.179,92.816 369.317,92.673 369.460 C 92.277 369.856,93.681 370.773,94.706 370.787 C 95.280 370.795,95.885 371.250,96.359 372.029 C 96.770 372.704,97.217 373.244,97.353 373.229 C 98.805 373.061,99.532 373.298,99.716 374.000 C 99.853 374.523,100.262 374.800,100.896 374.800 C 101.471 374.800,102.304 375.290,102.937 376.000 C 103.710 376.868,104.366 377.200,105.307 377.200 C 106.174 377.200,106.774 377.466,107.107 378.000 C 107.415 378.493,108.040 378.800,108.737 378.800 C 109.489 378.800,110.226 379.202,110.937 380.000 C 111.732 380.893,112.358 381.200,113.379 381.200 C 114.135 381.200,114.866 381.383,115.004 381.607 C 115.142 381.830,115.453 381.891,115.696 381.741 C 115.979 381.566,116.045 381.706,115.881 382.134 C 115.675 382.669,115.879 382.803,116.913 382.813 C 118.243 382.826,119.600 383.578,119.600 384.301 C 119.600 384.881,120.602 385.200,122.419 385.200 C 123.562 385.200,124.085 385.411,124.400 386.000 C 124.733 386.623,125.246 386.803,126.714 386.813 C 128.681 386.826,129.668 387.316,130.112 388.500 C 130.318 389.049,130.846 389.200,132.558 389.200 C 134.438 389.200,134.857 389.346,135.566 390.248 C 136.132 390.967,136.643 391.230,137.195 391.085 C 137.638 390.970,138.000 391.049,138.000 391.263 C 138.000 391.476,138.315 391.618,138.700 391.579 C 140.361 391.410,141.118 391.643,141.311 392.382 C 141.489 393.061,141.930 393.180,144.648 393.282 C 147.362 393.384,147.835 393.512,148.195 394.237 C 148.424 394.698,148.924 395.029,149.306 394.973 C 149.688 394.917,150.000 395.036,150.000 395.237 C 150.000 395.438,150.495 395.569,151.100 395.528 C 153.188 395.387,156.933 395.601,156.686 395.848 C 155.831 396.703,157.784 397.200,162.000 397.200 C 166.467 397.200,167.685 397.546,167.299 398.704 C 167.201 398.996,167.517 399.223,168.067 399.256 C 168.580 399.286,169.720 399.361,170.600 399.421 C 175.543 399.760,217.200 400.060,217.200 399.756 C 217.200 399.560,220.117 399.420,223.681 399.444 C 230.257 399.488,231.931 399.319,232.053 398.600 C 232.230 397.555,233.568 397.225,237.677 397.213 C 241.467 397.201,242.017 397.110,242.505 396.414 C 242.956 395.770,243.607 395.608,246.127 395.514 C 247.816 395.451,249.199 395.275,249.199 395.123 C 249.200 394.971,249.584 394.920,250.054 395.010 C 250.524 395.101,250.793 395.060,250.653 394.920 C 249.838 394.105,251.834 393.200,254.446 393.200 C 256.724 393.200,257.301 393.058,257.976 392.333 C 258.460 391.814,259.268 391.467,259.992 391.467 C 260.656 391.467,261.200 391.342,261.200 391.189 C 261.200 391.036,261.624 390.992,262.143 391.091 C 262.815 391.220,263.320 390.974,263.900 390.236 C 264.604 389.341,265.021 389.200,266.958 389.200 C 269.076 389.200,269.422 389.004,269.247 387.900 C 269.221 387.735,269.549 387.600,269.976 387.600 C 270.403 387.600,270.864 387.420,271.000 387.200 C 271.136 386.980,271.950 386.800,272.810 386.800 C 273.962 386.800,274.484 386.590,274.800 386.000 C 275.148 385.349,275.638 385.200,277.427 385.200 C 279.154 385.200,279.681 385.050,279.888 384.500 C 280.277 383.463,281.260 382.827,282.497 382.813 C 283.150 382.805,283.795 382.477,284.093 382.000 C 284.466 381.402,285.026 381.200,286.309 381.200 C 287.576 381.200,288.095 381.017,288.290 380.500 C 288.751 379.284,289.500 378.800,290.925 378.800 C 291.970 378.800,292.358 378.605,292.516 378.000 C 292.703 377.285,294.131 376.905,295.700 377.153 C 295.865 377.179,296.000 377.048,296.000 376.861 C 296.000 376.073,297.573 374.800,298.547 374.800 C 299.333 374.800,299.600 374.597,299.600 374.000 C 299.600 373.365,299.869 373.199,300.900 373.194 C 302.092 373.188,303.353 372.730,303.208 372.355 C 302.945 371.673,303.855 370.800,304.829 370.800 C 305.562 370.800,306.125 370.514,306.400 370.000 C 306.635 369.560,307.227 369.194,307.714 369.187 C 308.849 369.171,310.000 368.299,310.000 367.456 C 310.000 366.970,310.372 366.800,311.437 366.800 C 312.541 366.800,312.924 366.613,313.085 365.996 C 313.201 365.553,313.726 365.083,314.251 364.951 C 314.814 364.810,315.306 364.318,315.447 363.756 C 315.631 363.024,315.957 362.800,316.843 362.800 C 317.733 362.800,318.000 362.616,318.000 362.000 C 318.000 361.284,318.416 361.013,319.300 361.153 C 319.465 361.179,319.600 361.020,319.600 360.800 C 319.600 360.580,319.864 360.400,320.186 360.400 C 320.508 360.400,320.965 360.040,321.200 359.600 C 321.435 359.160,321.937 358.799,322.314 358.797 C 322.691 358.796,323.307 358.256,323.681 357.597 C 324.095 356.870,324.689 356.400,325.194 356.400 C 325.651 356.400,326.131 356.123,326.261 355.785 C 326.391 355.447,327.118 354.911,327.877 354.593 C 328.636 354.276,329.156 353.853,329.032 353.652 C 328.908 353.452,329.435 352.990,330.204 352.625 C 330.972 352.261,331.600 351.720,331.600 351.425 C 331.600 351.129,332.047 350.774,332.594 350.637 C 333.194 350.487,333.683 350.008,333.829 349.429 C 333.971 348.859,334.462 348.371,335.035 348.227 C 335.566 348.094,336.000 347.747,336.000 347.457 C 336.000 347.166,336.450 346.723,337.000 346.473 C 337.570 346.213,338.000 345.681,338.000 345.235 C 338.000 344.679,338.318 344.417,339.100 344.327 C 339.890 344.236,340.236 343.945,340.329 343.294 C 340.399 342.796,340.616 342.487,340.811 342.607 C 341.006 342.727,341.474 342.353,341.852 341.776 C 342.230 341.199,342.945 340.573,343.439 340.385 C 343.937 340.196,344.397 339.632,344.469 339.122 C 344.541 338.615,344.870 338.200,345.200 338.200 C 345.530 338.200,345.858 337.795,345.928 337.300 C 346.012 336.706,346.330 336.400,346.863 336.400 C 347.392 336.400,347.825 335.987,348.122 335.200 C 348.392 334.485,348.864 334.000,349.288 334.000 C 349.733 334.000,350.000 333.701,350.000 333.200 C 350.000 332.496,350.396 332.226,351.261 332.340 C 351.404 332.358,351.813 331.760,352.169 331.010 C 352.525 330.259,353.262 329.294,353.808 328.865 C 354.354 328.436,354.800 327.824,354.800 327.504 C 354.800 327.185,355.160 326.598,355.600 326.200 C 356.040 325.802,356.400 325.246,356.400 324.965 C 356.400 324.684,356.760 324.340,357.200 324.200 C 357.640 324.060,358.000 323.805,358.000 323.632 C 358.000 323.460,358.500 322.795,359.112 322.155 C 359.723 321.516,360.479 320.364,360.792 319.596 C 361.104 318.828,361.684 317.965,362.080 317.677 C 362.476 317.390,362.800 316.884,362.800 316.554 C 362.800 316.223,362.964 316.054,363.165 316.179 C 363.366 316.303,363.766 315.873,364.054 315.223 C 364.341 314.574,364.957 313.947,365.422 313.830 C 365.886 313.714,366.294 313.389,366.327 313.109 C 366.568 311.059,366.969 310.049,367.606 309.882 C 368.006 309.778,368.392 309.267,368.466 308.746 C 368.540 308.226,368.994 307.627,369.475 307.416 C 370.369 307.024,370.785 306.104,370.795 304.500 C 370.798 303.902,371.042 303.600,371.520 303.600 C 372.184 303.600,373.200 301.717,373.200 300.486 C 373.200 300.037,373.591 299.531,375.989 296.877 C 376.647 296.149,377.167 295.429,377.145 295.277 C 377.010 294.332,377.255 293.187,377.554 293.371 C 377.948 293.615,378.699 291.935,378.881 290.400 C 378.947 289.850,379.225 289.377,379.500 289.350 C 379.775 289.322,380.191 289.278,380.424 289.250 C 380.657 289.223,380.736 289.020,380.600 288.800 C 380.464 288.580,380.507 288.400,380.695 288.400 C 380.883 288.400,381.082 287.727,381.137 286.905 C 381.193 286.083,381.492 285.268,381.803 285.094 C 382.114 284.921,382.483 284.108,382.623 283.289 C 383.004 281.066,383.687 279.671,384.499 279.458 C 384.897 279.354,385.196 279.118,385.164 278.934 C 384.960 277.772,385.262 275.191,385.580 275.388 C 386.076 275.694,386.800 274.321,386.800 273.075 C 386.800 271.669,387.922 269.186,388.505 269.302 C 388.835 269.367,389.078 268.600,389.233 267.000 C 389.361 265.680,389.496 264.748,389.533 264.929 C 389.794 266.204,391.000 263.573,391.000 261.729 C 391.000 260.558,391.135 259.600,391.300 259.600 C 391.465 259.600,391.600 259.249,391.600 258.820 C 391.600 258.391,391.913 257.865,392.296 257.650 C 392.845 257.343,393.022 256.583,393.138 254.031 C 393.219 252.254,393.459 250.800,393.671 250.800 C 394.087 250.800,395.238 249.767,395.214 249.414 C 395.206 249.296,395.229 249.065,395.265 248.900 C 395.340 248.555,395.419 247.091,395.525 244.100 C 395.576 242.663,395.758 242.032,396.100 242.100 C 396.375 242.155,396.555 241.975,396.500 241.700 C 396.445 241.425,396.559 241.200,396.754 241.200 C 396.948 241.200,397.136 239.231,397.172 236.824 C 397.231 232.877,397.855 230.000,398.653 230.000 C 398.760 230.000,398.719 230.208,398.562 230.462 C 398.377 230.760,398.453 230.814,398.776 230.615 C 399.051 230.445,399.193 229.877,399.093 229.353 C 398.993 228.829,399.044 228.400,399.207 228.400 C 399.608 228.400,399.801 219.284,399.795 200.600 C 399.790 181.606,399.598 171.600,399.238 171.600 C 399.090 171.600,398.976 171.195,398.984 170.700 C 398.993 170.205,398.845 169.766,398.655 169.723 C 397.728 169.518,397.234 167.340,397.172 163.190 C 397.137 160.776,396.948 158.800,396.754 158.800 C 396.559 158.800,396.445 158.575,396.500 158.300 C 396.555 158.025,396.375 157.845,396.100 157.900 C 395.606 157.999,395.357 156.116,395.506 153.400 C 395.542 152.740,395.459 151.930,395.321 151.600 C 395.182 151.270,395.049 150.910,395.024 150.800 C 394.891 150.207,394.147 149.253,393.800 149.231 C 393.579 149.217,393.348 147.771,393.284 146.003 C 393.210 143.964,393.004 142.800,392.717 142.800 C 392.469 142.800,392.368 142.699,392.491 142.575 C 392.615 142.452,392.296 141.897,391.782 141.343 C 391.131 140.640,390.882 139.950,390.960 139.067 C 391.119 137.282,390.488 135.200,389.789 135.200 C 389.358 135.200,389.200 134.718,389.200 133.400 C 389.200 132.410,389.191 131.519,389.179 131.420 C 389.167 131.321,388.627 130.672,387.979 129.977 C 387.144 129.084,386.800 128.312,386.800 127.331 C 386.800 125.742,386.138 124.267,385.580 124.612 C 385.274 124.802,384.969 122.358,385.145 121.124 C 385.166 120.973,384.872 120.748,384.492 120.625 C 383.674 120.361,382.800 118.634,382.800 117.284 C 382.800 116.758,382.445 116.029,382.010 115.664 C 381.500 115.235,381.191 114.426,381.136 113.376 C 381.071 112.112,380.000 109.904,380.000 111.033 C 380.000 111.179,379.730 111.074,379.400 110.800 C 379.070 110.526,378.800 109.694,378.800 108.951 C 378.800 108.188,378.597 107.600,378.333 107.600 C 378.077 107.600,377.986 107.481,378.131 107.336 C 378.276 107.191,378.044 106.826,377.614 106.525 C 377.185 106.224,376.928 105.731,377.044 105.430 C 377.160 105.128,377.059 104.760,376.821 104.613 C 376.582 104.465,376.489 104.179,376.614 103.977 C 376.739 103.775,376.562 103.716,376.221 103.847 C 375.818 104.002,375.600 103.859,375.600 103.443 C 375.600 103.089,375.420 102.800,375.200 102.800 C 374.980 102.800,374.800 102.333,374.800 101.763 C 374.800 101.062,374.541 100.657,374.000 100.516 C 373.504 100.386,373.200 99.970,373.200 99.420 C 373.200 98.932,373.065 98.398,372.900 98.233 C 372.735 98.068,372.578 97.768,372.550 97.567 C 372.523 97.365,372.478 97.020,372.450 96.800 C 372.423 96.580,372.040 96.400,371.600 96.400 C 371.019 96.400,370.800 96.133,370.800 95.425 C 370.800 94.888,370.260 93.858,369.600 93.136 C 368.940 92.413,368.400 91.485,368.400 91.073 C 368.400 90.662,368.040 90.231,367.600 90.116 C 367.098 89.985,366.800 89.570,366.800 89.002 C 366.800 88.505,366.530 87.874,366.200 87.600 C 365.870 87.326,365.600 86.854,365.600 86.551 C 365.600 86.248,365.374 86.000,365.098 86.000 C 364.821 86.000,364.356 85.459,364.063 84.798 C 363.770 84.136,363.366 83.697,363.165 83.821 C 362.964 83.946,362.794 83.722,362.787 83.324 C 362.774 82.595,361.602 80.722,361.598 81.424 C 361.596 81.631,361.326 81.284,360.998 80.654 C 360.669 80.024,360.400 79.242,360.400 78.917 C 360.400 78.591,360.038 78.230,359.596 78.115 C 359.153 77.999,358.688 77.492,358.561 76.987 C 358.428 76.458,357.922 75.967,357.365 75.827 C 356.775 75.679,356.400 75.294,356.400 74.835 C 356.400 74.423,356.127 73.981,355.794 73.853 C 355.461 73.725,355.015 73.166,354.804 72.610 C 354.593 72.055,354.176 71.600,353.877 71.600 C 353.579 71.600,353.080 71.105,352.768 70.500 C 352.455 69.895,351.975 69.162,351.700 68.871 C 351.425 68.581,351.200 68.176,351.200 67.971 C 351.200 67.767,350.951 67.600,350.647 67.600 C 350.342 67.600,349.999 67.240,349.884 66.800 C 349.769 66.360,349.388 66.000,349.037 66.000 C 348.489 66.000,348.185 65.476,348.500 65.071 C 348.722 64.786,347.214 63.600,346.629 63.600 C 346.257 63.600,346.000 63.257,346.000 62.763 C 346.000 62.280,345.682 61.842,345.249 61.729 C 344.836 61.621,344.299 61.097,344.057 60.566 C 343.815 60.035,343.353 59.600,343.030 59.600 C 342.708 59.600,342.206 59.105,341.916 58.500 C 341.626 57.895,341.240 57.490,341.058 57.600 C 340.876 57.710,340.468 57.305,340.151 56.700 C 339.820 56.068,339.240 55.600,338.787 55.600 C 338.309 55.600,338.000 55.330,338.000 54.910 C 338.000 54.135,335.341 51.600,334.527 51.600 C 334.237 51.600,334.000 51.276,334.000 50.880 C 334.000 50.057,333.267 49.200,332.562 49.200 C 332.300 49.200,331.121 48.303,329.942 47.207 C 328.764 46.111,327.528 45.211,327.196 45.207 C 326.864 45.203,326.368 44.840,326.093 44.400 C 325.818 43.960,325.337 43.600,325.024 43.600 C 324.711 43.600,324.070 43.060,323.600 42.400 C 323.130 41.740,322.502 41.200,322.204 41.200 C 321.905 41.200,321.122 40.660,320.462 40.000 C 319.802 39.340,318.999 38.800,318.677 38.800 C 318.356 38.800,317.999 38.440,317.884 38.000 C 317.745 37.467,317.338 37.200,316.665 37.200 C 315.924 37.200,315.622 36.962,315.528 36.304 C 315.454 35.787,315.062 35.344,314.601 35.256 C 314.162 35.172,313.405 34.675,312.920 34.152 C 312.435 33.628,311.580 33.200,311.019 33.200 C 310.273 33.200,310.000 32.990,310.000 32.414 C 310.000 31.558,308.907 30.800,307.673 30.800 C 307.230 30.800,306.803 30.455,306.684 30.000 C 306.524 29.387,306.138 29.200,305.037 29.200 C 303.997 29.200,303.600 29.026,303.600 28.571 C 303.600 27.405,302.699 26.800,300.963 26.800 C 300.262 26.800,299.857 26.541,299.716 26.000 C 299.577 25.467,299.170 25.200,298.500 25.200 C 297.613 25.200,296.000 23.923,296.000 23.221 C 296.000 23.079,295.325 22.923,294.500 22.873 C 293.530 22.815,292.806 22.503,292.451 21.991 C 292.099 21.484,291.446 21.200,290.631 21.200 C 289.234 21.200,288.356 20.580,288.654 19.804 C 288.868 19.247,287.628 18.814,285.796 18.805 C 285.030 18.802,284.411 18.509,284.093 18.000 C 283.764 17.473,283.150 17.196,282.297 17.187 C 280.865 17.173,279.646 16.448,279.881 15.751 C 280.064 15.209,278.736 14.813,276.714 14.805 C 275.641 14.802,275.109 14.578,274.800 14.000 C 274.530 13.496,273.962 13.200,273.266 13.200 C 271.772 13.200,270.082 12.357,269.858 11.500 C 269.707 10.924,269.215 10.800,267.086 10.800 C 264.580 10.800,263.189 10.188,263.903 9.399 C 264.067 9.219,263.975 9.201,263.700 9.359 C 263.420 9.520,263.200 9.440,263.200 9.177 C 263.200 8.891,262.808 8.782,262.200 8.898 C 261.650 9.003,261.200 8.934,261.200 8.745 C 261.200 8.555,260.795 8.403,260.300 8.406 C 259.572 8.411,259.515 8.486,260.000 8.800 C 260.330 9.013,260.486 9.191,260.346 9.194 C 259.874 9.205,258.125 8.182,257.431 7.489 C 256.911 6.968,256.042 6.797,253.871 6.787 C 251.034 6.775,249.600 6.253,249.600 5.232 C 249.600 4.969,249.432 4.856,249.228 4.983 C 249.023 5.109,248.759 5.058,248.642 4.868 C 248.524 4.678,247.041 4.496,245.346 4.464 C 242.824 4.416,242.128 4.259,241.516 3.602 C 240.850 2.887,240.259 2.800,236.060 2.800 C 231.729 2.800,231.273 2.728,230.385 1.900 C 229.853 1.405,229.325 0.984,229.209 0.965 C 229.094 0.946,228.730 0.819,228.400 0.683 C 228.070 0.546,227.350 0.437,226.800 0.440 C 226.250 0.443,216.350 0.323,204.800 0.174 C 193.250 0.024,183.704 0.005,183.586 0.132 M262.349 72.352 C 264.686 72.610,266.041 72.976,266.833 73.561 C 267.457 74.022,268.311 74.400,268.730 74.400 C 269.149 74.400,269.921 74.735,270.446 75.143 C 270.971 75.552,271.940 76.190,272.600 76.560 C 277.505 79.314,286.481 88.478,289.245 93.554 C 289.770 94.519,290.422 95.689,290.694 96.154 C 290.966 96.619,291.191 97.291,291.194 97.646 C 291.197 98.001,291.563 98.754,292.008 99.319 C 293.479 101.190,293.579 105.998,293.589 175.600 C 293.600 247.247,293.532 250.180,291.793 253.452 C 291.247 254.479,290.790 255.517,290.778 255.760 C 290.766 256.002,290.049 257.190,289.184 258.400 C 288.318 259.610,287.330 261.197,286.988 261.927 C 285.803 264.458,275.214 274.602,271.840 276.440 C 271.598 276.572,270.860 276.986,270.200 277.362 C 269.540 277.737,268.370 278.309,267.600 278.634 C 266.830 278.959,265.660 279.534,265.000 279.913 C 263.044 281.033,142.669 281.177,141.431 280.060 C 140.974 279.648,140.007 279.112,139.281 278.870 C 138.556 278.627,137.497 278.062,136.927 277.614 C 136.358 277.166,135.501 276.800,135.023 276.800 C 134.544 276.800,133.804 276.530,133.376 276.200 C 132.949 275.870,131.880 275.237,131.000 274.793 C 124.997 271.768,117.473 264.641,113.526 258.244 C 112.788 257.047,111.175 253.110,110.432 250.692 C 109.602 247.991,109.600 247.768,109.600 176.120 C 109.600 94.902,109.295 102.941,112.633 96.200 C 115.799 89.809,123.003 81.378,128.452 77.687 C 132.325 75.065,133.475 74.414,134.246 74.407 C 134.711 74.403,135.521 74.071,136.046 73.668 C 136.571 73.266,137.360 72.771,137.800 72.568 C 138.471 72.259,256.470 71.596,258.400 71.890 C 258.730 71.940,260.507 72.148,262.349 72.352 M133.978 112.363 C 132.976 112.504,131.646 113.020,131.024 113.510 C 130.401 113.999,129.723 114.400,129.517 114.400 C 128.959 114.400,125.206 118.456,124.774 119.526 C 124.228 120.879,124.279 179.630,124.828 181.074 C 125.426 182.648,130.761 187.813,132.140 188.154 C 132.767 188.309,133.817 188.832,134.474 189.318 L 135.667 190.200 202.133 190.318 C 238.690 190.384,269.537 190.327,270.683 190.192 C 273.325 189.881,276.900 186.623,277.629 183.862 C 277.870 182.948,278.328 181.390,278.647 180.400 C 279.716 177.077,279.255 121.235,278.136 118.600 C 276.641 115.080,273.720 112.568,270.761 112.259 C 267.561 111.925,136.386 112.024,133.978 112.363 M137.400 208.734 C 136.740 209.136,135.750 209.582,135.200 209.726 C 133.978 210.045,130.953 212.921,129.612 215.040 C 128.020 217.557,128.099 226.164,129.741 228.905 C 132.994 234.337,138.420 236.462,145.808 235.199 C 153.709 233.847,158.379 223.375,154.500 215.705 C 153.318 213.366,149.670 209.600,148.587 209.600 C 148.224 209.600,147.469 209.240,146.909 208.800 C 145.485 207.680,139.202 207.636,137.400 208.734 M256.989 208.543 C 256.555 208.842,255.480 209.316,254.600 209.598 C 251.171 210.694,248.593 214.354,247.991 218.982 C 246.432 230.961,253.850 237.621,265.878 235.040 C 269.085 234.352,273.595 230.501,273.602 228.444 C 273.604 228.090,273.896 227.260,274.252 226.600 C 275.347 224.569,275.448 220.076,274.448 217.816 C 273.982 216.761,273.600 215.592,273.600 215.218 C 273.600 214.262,269.092 209.601,268.165 209.597 C 267.744 209.596,266.860 209.237,266.200 208.800 C 264.713 207.815,258.306 207.636,256.989 208.543 M176.571 284.229 C 177.529 285.186,177.331 285.935,175.900 286.775 C 175.185 287.194,174.240 287.823,173.800 288.172 C 173.360 288.521,172.227 289.367,171.282 290.052 C 170.336 290.736,169.640 291.373,169.734 291.467 C 169.943 291.677,234.449 291.685,234.658 291.475 C 234.878 291.256,230.047 287.524,228.619 286.809 C 227.195 286.096,226.898 285.159,227.809 284.249 C 229.051 283.007,245.190 283.306,246.727 284.600 C 247.381 285.150,248.046 285.600,248.205 285.600 C 248.364 285.600,249.094 286.095,249.827 286.700 C 251.849 288.369,252.883 289.150,254.200 290.007 C 254.860 290.436,256.030 291.245,256.800 291.803 C 257.570 292.362,258.785 293.193,259.500 293.649 C 260.215 294.106,260.800 294.612,260.800 294.775 C 260.800 294.938,261.276 295.289,261.859 295.554 C 262.928 296.041,264.122 296.890,266.568 298.900 C 267.303 299.505,268.112 300.000,268.365 300.000 C 268.618 300.000,268.926 300.263,269.050 300.585 C 269.173 300.906,269.613 301.277,270.028 301.409 C 270.700 301.622,272.263 302.786,275.134 305.211 C 275.648 305.645,276.254 306.000,276.481 306.000 C 276.847 306.000,278.319 307.098,280.516 309.009 C 280.909 309.351,281.674 309.833,282.216 310.080 C 282.757 310.327,283.200 310.676,283.200 310.856 C 283.200 311.036,283.875 311.548,284.700 311.994 C 286.597 313.018,288.440 314.397,289.119 315.300 C 289.409 315.685,289.880 316.000,290.168 316.000 C 290.711 316.000,292.990 317.622,294.916 319.381 C 295.530 319.941,296.295 320.400,296.616 320.400 C 296.937 320.400,297.200 320.539,297.200 320.709 C 297.200 320.880,298.549 321.915,300.199 323.009 C 301.848 324.104,303.198 325.130,303.199 325.290 C 303.199 325.449,303.768 325.873,304.462 326.232 C 305.157 326.591,306.088 327.224,306.533 327.638 C 306.977 328.052,307.653 328.490,308.034 328.611 C 308.414 328.732,308.820 329.075,308.935 329.375 C 309.050 329.674,309.771 330.126,310.537 330.379 C 312.211 330.932,312.659 331.850,311.748 332.858 C 310.867 333.831,92.761 334.045,91.433 333.074 C 90.548 332.426,90.727 331.237,91.799 330.643 C 92.238 330.399,93.167 329.750,93.863 329.200 C 94.559 328.650,95.782 327.750,96.581 327.200 C 97.379 326.650,98.648 325.750,99.400 325.200 C 100.152 324.650,101.421 323.750,102.219 323.200 C 103.018 322.650,104.264 321.705,104.988 321.100 C 105.713 320.495,106.498 320.000,106.733 320.000 C 106.968 320.000,107.304 319.756,107.480 319.458 C 107.788 318.936,110.297 317.160,112.256 316.078 C 112.775 315.791,113.200 315.404,113.200 315.218 C 113.200 315.031,113.785 314.502,114.500 314.042 C 118.210 311.652,118.756 311.259,121.373 309.100 C 122.106 308.495,122.875 308.000,123.083 308.000 C 123.291 308.000,123.883 307.550,124.400 307.000 C 124.917 306.450,125.509 306.000,125.717 306.000 C 125.925 306.000,126.687 305.505,127.412 304.900 C 128.136 304.295,129.382 303.350,130.181 302.800 C 130.979 302.250,132.248 301.350,133.000 300.800 C 133.752 300.250,135.012 299.350,135.800 298.800 C 136.588 298.250,137.848 297.350,138.600 296.800 C 139.352 296.250,140.627 295.350,141.433 294.800 C 142.240 294.250,143.282 293.421,143.750 292.957 C 144.217 292.494,145.185 291.814,145.900 291.447 C 146.615 291.080,147.200 290.622,147.200 290.429 C 147.200 290.236,147.740 289.890,148.400 289.660 C 149.060 289.430,149.600 289.070,149.600 288.860 C 149.600 288.651,150.260 288.056,151.066 287.540 C 151.873 287.023,153.083 286.245,153.755 285.811 C 154.427 285.378,155.297 284.703,155.689 284.311 C 156.706 283.294,175.562 283.219,176.571 284.229 M154.200 302.771 C 152.656 303.144,151.200 303.928,151.200 304.387 C 151.200 304.585,150.861 304.854,150.448 304.985 C 150.034 305.116,149.269 305.594,148.748 306.047 C 148.226 306.500,147.590 306.989,147.332 307.135 C 145.145 308.374,146.254 308.400,202.000 308.414 C 232.470 308.422,257.465 308.307,257.543 308.159 C 257.730 307.809,254.434 305.200,253.806 305.200 C 253.541 305.200,253.008 304.851,252.622 304.424 C 250.747 302.353,251.879 302.397,201.829 302.441 C 176.293 302.463,154.860 302.612,154.200 302.771 M128.000 319.492 C 127.670 319.619,127.004 320.099,126.521 320.561 C 126.038 321.022,125.138 321.807,124.521 322.303 C 123.904 322.800,121.976 324.386,120.236 325.826 C 118.496 327.267,116.540 328.721,115.890 329.057 C 115.173 329.428,114.852 329.812,115.075 330.035 C 115.598 330.558,289.293 330.324,289.464 329.800 C 289.535 329.580,289.010 328.995,288.297 328.501 C 287.584 328.006,286.100 326.747,285.000 325.702 C 283.900 324.657,281.769 322.767,280.264 321.501 L 277.527 319.200 203.064 319.232 C 162.109 319.249,128.330 319.366,128.000 319.492 " stroke="none" fill="#a4b4fc" fill-rule="evenodd"></path><path id="path2" d="M139.982 73.197 C 138.983 73.369,137.455 73.890,136.588 74.355 C 135.721 74.820,134.781 75.200,134.499 75.200 C 130.897 75.200,113.600 92.557,113.600 96.171 C 113.600 96.414,113.214 97.329,112.743 98.206 C 110.768 101.879,110.828 99.410,110.828 176.200 C 110.828 254.827,110.682 249.920,113.188 255.356 C 116.887 263.379,131.154 276.400,136.247 276.400 C 136.699 276.400,137.885 277.021,142.927 279.898 C 143.615 280.291,156.209 280.376,202.400 280.298 L 261.000 280.200 264.400 278.938 C 275.615 274.773,286.587 263.848,291.172 252.279 L 292.408 249.158 292.304 175.279 C 292.208 106.841,292.150 101.312,291.526 100.200 C 291.155 99.540,290.397 98.010,289.842 96.800 C 287.080 90.777,279.401 81.951,273.800 78.361 C 269.765 75.775,268.793 75.200,268.457 75.200 C 268.259 75.200,267.040 74.705,265.748 74.100 L 263.400 73.000 202.600 72.942 C 169.160 72.910,140.982 73.025,139.982 73.197 M260.859 73.569 C 263.979 73.972,267.827 75.433,271.245 77.513 C 272.589 78.331,274.052 79.208,274.497 79.463 C 276.478 80.598,284.673 89.168,286.292 91.800 C 288.803 95.879,289.562 97.273,290.006 98.628 C 290.289 99.493,290.809 100.642,291.161 101.182 C 291.739 102.072,291.811 109.078,291.913 175.182 L 292.026 248.200 290.973 251.000 C 289.166 255.800,288.174 257.646,285.315 261.523 C 281.424 266.800,272.633 274.976,269.953 275.809 C 269.429 275.972,268.550 276.416,268.000 276.795 C 267.450 277.175,265.327 277.962,263.282 278.543 L 259.564 279.600 201.436 279.600 C 145.701 279.600,143.269 279.570,142.354 278.867 C 141.829 278.464,140.140 277.539,138.600 276.812 C 137.060 276.084,134.630 274.933,133.200 274.253 C 131.770 273.573,129.880 272.512,129.000 271.894 C 128.120 271.276,126.770 270.348,126.000 269.831 C 122.752 267.651,116.174 260.214,114.650 257.000 C 114.337 256.340,113.568 254.720,112.940 253.400 L 111.800 251.000 111.800 176.200 L 111.800 101.400 113.055 98.800 C 113.745 97.370,114.423 95.930,114.561 95.600 C 115.476 93.420,120.814 86.449,123.598 83.800 C 127.829 79.773,127.989 79.649,131.658 77.553 C 132.281 77.197,133.018 76.717,133.295 76.487 C 134.358 75.606,139.505 73.855,141.800 73.594 C 145.348 73.192,257.749 73.168,260.859 73.569 M134.303 110.788 C 130.659 111.630,129.875 112.095,126.318 115.516 C 122.530 119.160,122.725 117.116,122.873 151.655 L 123.000 181.111 124.360 183.055 C 126.076 185.510,129.421 188.636,130.995 189.257 C 131.658 189.518,132.512 189.997,132.893 190.322 C 134.605 191.779,136.059 191.804,205.353 191.600 L 273.175 191.400 275.632 189.000 C 277.145 187.522,278.533 185.678,279.244 184.200 L 280.399 181.800 280.400 150.689 L 280.400 119.577 279.234 117.289 C 277.352 113.594,275.190 111.805,271.425 110.826 C 266.795 109.622,139.502 109.587,134.303 110.788 M270.963 111.401 C 274.391 111.826,276.572 113.583,278.658 117.600 L 279.800 119.800 279.914 149.800 C 280.049 185.359,280.270 183.383,275.636 188.061 C 272.187 191.543,279.028 191.261,201.600 191.120 L 135.400 191.000 132.453 189.400 C 128.906 187.474,124.160 182.690,123.797 180.674 C 123.670 179.973,123.619 165.771,123.684 149.114 L 123.800 118.827 126.000 116.579 C 129.417 113.087,131.181 112.029,134.501 111.480 C 137.563 110.973,266.900 110.899,270.963 111.401 M134.691 208.164 C 128.130 211.894,125.653 217.915,127.256 226.233 C 128.736 233.911,139.750 239.960,146.600 236.858 C 147.480 236.459,148.656 236.019,149.214 235.881 C 155.757 234.251,159.393 221.367,155.350 214.137 C 151.505 207.261,141.413 204.343,134.691 208.164 M254.200 208.042 C 244.174 213.224,242.841 226.769,251.614 234.316 C 254.846 237.095,262.179 238.442,265.675 236.897 C 266.624 236.478,267.873 236.017,268.451 235.872 C 274.609 234.331,278.621 221.976,275.177 215.155 C 271.291 207.456,261.655 204.189,254.200 208.042 M148.190 208.366 C 155.731 211.929,159.037 222.171,154.962 229.345 C 148.162 241.317,129.321 238.082,127.656 224.656 C 126.093 212.048,137.250 203.197,148.190 208.366 M267.836 208.548 C 278.847 213.825,278.522 231.272,267.331 235.626 C 255.119 240.378,243.833 230.323,247.160 217.653 C 249.483 208.804,259.325 204.470,267.836 208.548 M164.595 284.368 L 156.990 284.600 152.257 288.000 C 149.654 289.870,146.957 291.805,146.262 292.299 C 143.221 294.465,142.219 295.187,137.800 298.400 C 131.263 303.153,131.051 303.306,129.756 304.188 C 129.120 304.622,127.970 305.453,127.200 306.036 C 125.995 306.948,117.055 313.473,111.686 317.360 C 110.744 318.042,109.363 319.050,108.617 319.600 C 107.872 320.150,105.987 321.500,104.429 322.600 C 101.765 324.481,97.583 327.532,93.686 330.437 C 92.743 331.140,92.038 331.914,92.119 332.158 C 92.373 332.921,308.200 333.712,310.167 332.957 C 311.530 332.434,310.615 331.311,306.674 328.668 C 304.433 327.166,301.880 325.404,301.000 324.754 C 300.120 324.104,298.770 323.137,298.000 322.605 C 296.683 321.695,288.446 315.771,280.063 309.705 C 278.007 308.217,275.249 306.190,273.934 305.200 C 272.619 304.210,270.855 302.950,270.014 302.400 C 269.174 301.850,264.763 298.700,260.212 295.400 C 255.660 292.100,250.362 288.291,248.437 286.936 L 244.937 284.472 237.052 284.339 C 228.642 284.197,227.178 284.508,229.219 286.000 C 234.642 289.966,235.936 291.313,235.189 292.213 C 234.687 292.818,170.981 293.152,169.433 292.557 C 167.791 291.927,168.620 290.992,175.312 285.928 C 177.455 284.307,175.574 284.034,164.595 284.368 M174.768 285.300 C 174.751 285.575,173.266 286.892,171.469 288.226 C 168.160 290.682,167.544 291.569,168.416 292.619 C 169.068 293.405,235.136 293.504,235.920 292.720 C 237.009 291.631,234.716 288.939,230.500 286.359 C 230.005 286.055,229.600 285.581,229.600 285.304 C 229.600 284.652,244.609 284.567,245.010 285.216 C 245.263 285.626,247.241 287.026,249.788 288.600 C 250.500 289.040,251.874 290.031,252.841 290.802 C 253.809 291.573,255.636 292.923,256.902 293.802 C 258.168 294.681,259.878 295.901,260.702 296.514 C 261.526 297.126,262.906 298.093,263.769 298.662 C 264.631 299.231,265.531 299.854,265.769 300.046 C 266.006 300.237,266.982 301.026,267.938 301.797 C 268.894 302.569,269.826 303.200,270.009 303.200 C 270.193 303.200,270.581 303.427,270.871 303.705 C 271.162 303.983,271.850 304.528,272.400 304.917 C 272.950 305.305,274.120 306.164,275.000 306.825 C 275.880 307.486,277.230 308.471,278.000 309.012 C 278.770 309.554,280.030 310.448,280.800 311.000 C 281.570 311.552,282.830 312.452,283.600 313.000 C 284.370 313.548,285.630 314.448,286.400 315.000 C 287.170 315.552,288.430 316.452,289.200 317.000 C 289.970 317.548,291.230 318.448,292.000 319.000 C 292.770 319.552,294.030 320.449,294.800 320.994 C 295.570 321.539,297.550 322.976,299.200 324.187 C 303.629 327.439,305.068 328.446,307.555 330.033 C 311.904 332.809,318.396 332.600,228.000 332.600 C 183.010 332.600,134.680 332.464,120.600 332.299 C 106.520 332.133,94.675 331.998,94.277 331.999 C 92.839 332.001,94.653 330.296,100.316 326.324 C 101.713 325.344,103.701 323.900,106.000 322.197 C 107.508 321.080,112.573 317.436,114.716 315.927 C 117.092 314.254,119.494 312.490,125.936 307.690 C 127.330 306.650,129.040 305.394,129.736 304.899 C 130.431 304.403,131.630 303.548,132.400 303.000 C 133.170 302.452,134.430 301.552,135.200 301.000 C 135.970 300.448,137.230 299.554,138.000 299.012 C 138.770 298.471,140.120 297.487,141.000 296.828 C 141.880 296.168,143.770 294.805,145.200 293.800 C 146.630 292.795,148.520 291.433,149.400 290.773 C 151.292 289.354,153.246 287.970,155.266 286.615 C 156.073 286.075,156.849 285.445,156.990 285.216 C 157.391 284.568,174.810 284.650,174.768 285.300 M154.187 300.671 C 153.740 300.760,152.210 301.731,150.787 302.829 C 149.364 303.928,147.502 305.287,146.649 305.851 C 143.704 307.795,142.384 310.001,143.833 310.557 C 144.660 310.875,260.140 310.875,260.967 310.557 C 262.874 309.825,258.617 306.008,250.877 301.509 L 249.000 300.419 202.000 300.464 C 176.150 300.489,154.634 300.582,154.187 300.671 M249.833 301.788 C 253.526 303.331,260.680 308.823,260.138 309.700 C 259.847 310.172,144.892 310.073,144.600 309.601 C 143.963 308.569,151.556 302.169,154.222 301.491 C 156.445 300.925,248.452 301.211,249.833 301.788 M127.800 317.871 C 127.140 318.222,125.796 319.295,124.813 320.255 C 123.830 321.215,122.894 322.000,122.734 322.000 C 122.573 322.000,121.315 322.945,119.937 324.100 C 118.560 325.255,116.616 326.741,115.616 327.403 C 113.574 328.755,112.828 330.939,114.277 331.323 C 116.861 332.008,290.931 330.970,291.357 330.267 C 291.719 329.668,291.632 329.413,290.875 328.867 C 289.771 328.071,287.281 325.906,283.200 322.195 C 281.550 320.694,279.498 318.957,278.640 318.333 L 277.080 317.200 203.040 317.216 C 136.028 317.231,128.886 317.293,127.800 317.871 M278.200 318.754 C 278.860 319.166,281.591 321.492,284.268 323.921 C 286.946 326.350,289.511 328.538,289.968 328.783 C 290.982 329.326,291.053 330.274,290.100 330.545 C 288.894 330.887,115.027 331.017,114.500 330.676 C 113.578 330.080,113.987 329.218,115.700 328.147 C 116.635 327.563,118.043 326.510,118.830 325.807 C 119.616 325.104,121.236 323.805,122.430 322.919 C 123.623 322.033,125.066 320.839,125.636 320.264 C 128.048 317.831,122.092 318.005,203.000 318.004 C 274.684 318.003,277.038 318.026,278.200 318.754 " stroke="none" fill="#d4dcfc" fill-rule="evenodd"></path><path id="path3" d="M171.900 72.700 C 188.015 72.758,214.385 72.758,230.500 72.700 C 246.615 72.642,233.430 72.595,201.200 72.595 C 168.970 72.595,155.785 72.642,171.900 72.700 M139.700 73.076 C 140.085 73.176,140.715 73.176,141.100 73.076 C 141.485 72.975,141.170 72.893,140.400 72.893 C 139.630 72.893,139.315 72.975,139.700 73.076 M261.300 73.076 C 261.685 73.176,262.315 73.176,262.700 73.076 C 263.085 72.975,262.770 72.893,262.000 72.893 C 261.230 72.893,260.915 72.975,261.300 73.076 M136.600 74.000 C 135.061 75.019,135.401 75.019,137.400 74.000 C 138.263 73.560,138.706 73.201,138.385 73.203 C 138.063 73.204,137.260 73.563,136.600 74.000 M264.400 73.486 C 264.730 73.608,265.360 73.874,265.800 74.076 C 266.587 74.438,266.588 74.434,265.824 73.822 C 265.396 73.480,264.766 73.214,264.424 73.232 C 263.885 73.259,263.882 73.293,264.400 73.486 M132.100 76.046 C 130.737 76.919,130.295 77.506,131.500 76.843 C 132.418 76.339,133.856 75.227,133.600 75.219 C 133.490 75.216,132.815 75.588,132.100 76.046 M269.200 75.366 C 269.200 75.476,270.055 76.054,271.100 76.651 C 272.145 77.247,273.360 78.013,273.800 78.353 L 274.600 78.970 273.800 78.147 C 272.970 77.294,269.200 75.014,269.200 75.366 M128.400 78.442 C 125.123 80.590,118.013 88.213,115.847 91.900 C 115.027 93.295,116.093 92.101,117.632 89.900 C 120.043 86.452,125.768 80.580,128.300 78.956 C 129.455 78.216,130.400 77.518,130.400 77.405 C 130.400 77.127,130.434 77.109,128.400 78.442 M277.800 81.417 C 279.120 82.690,281.249 84.827,282.531 86.166 C 284.783 88.517,284.803 88.528,283.132 86.501 C 282.180 85.347,280.051 83.211,278.401 81.753 C 275.682 79.353,275.626 79.321,277.800 81.417 M286.792 91.400 C 288.078 93.711,290.385 97.360,290.392 97.094 C 290.404 96.641,288.126 92.754,287.173 91.600 C 286.664 90.985,286.518 90.908,286.792 91.400 M114.384 94.023 C 113.905 94.696,113.579 95.313,113.661 95.394 C 113.743 95.476,114.214 94.926,114.708 94.171 C 115.823 92.471,115.571 92.356,114.384 94.023 M112.279 98.374 C 111.906 99.006,111.601 99.676,111.601 99.862 C 111.602 100.048,111.972 99.595,112.423 98.855 C 112.874 98.115,113.179 97.446,113.101 97.367 C 113.022 97.289,112.652 97.742,112.279 98.374 M290.801 99.024 C 290.801 99.256,291.064 99.796,291.387 100.224 C 291.710 100.651,292.001 101.360,292.034 101.800 C 292.079 102.415,292.133 102.448,292.267 101.944 C 292.363 101.583,292.073 100.683,291.622 99.944 C 291.172 99.205,290.802 98.791,290.801 99.024 M110.656 103.284 C 110.521 103.788,110.452 136.690,110.503 176.400 L 110.595 248.600 110.797 175.600 C 110.909 135.450,110.978 102.548,110.951 102.484 C 110.924 102.420,110.791 102.780,110.656 103.284 M292.596 176.000 C 292.596 216.150,292.643 232.575,292.700 212.500 C 292.757 192.425,292.757 159.575,292.700 139.500 C 292.643 119.425,292.596 135.850,292.596 176.000 M274.684 113.021 C 275.390 113.577,276.439 114.610,277.016 115.316 C 277.593 116.022,277.880 116.224,277.653 115.766 C 277.211 114.868,274.192 111.997,273.699 112.004 C 273.534 112.007,273.978 112.464,274.684 113.021 M126.411 116.189 C 125.000 117.613,123.925 118.833,124.022 118.899 C 124.120 118.966,125.356 117.801,126.769 116.310 C 130.036 112.862,129.791 112.779,126.411 116.189 M123.790 150.200 C 123.790 167.140,123.840 174.012,123.900 165.470 C 123.960 156.929,123.960 143.069,123.900 134.670 C 123.840 126.272,123.790 133.260,123.790 150.200 M279.790 150.600 C 279.790 167.100,279.839 173.908,279.900 165.730 C 279.960 157.551,279.960 144.051,279.900 135.730 C 279.839 127.408,279.790 134.100,279.790 150.600 M278.587 183.090 C 278.164 184.336,277.372 185.906,276.828 186.578 L 275.838 187.800 276.884 186.863 C 277.852 185.996,279.929 181.396,279.532 180.999 C 279.436 180.903,279.011 181.844,278.587 183.090 M127.400 185.600 C 128.706 186.920,129.865 188.000,129.975 188.000 C 130.085 188.000,129.106 186.920,127.800 185.600 C 126.494 184.280,125.335 183.200,125.225 183.200 C 125.115 183.200,126.094 184.280,127.400 185.600 M132.400 189.220 C 133.787 190.161,134.578 190.435,133.600 189.636 C 133.050 189.186,132.420 188.817,132.200 188.815 C 131.980 188.813,132.070 188.996,132.400 189.220 M169.932 191.100 C 188.484 191.157,218.724 191.157,237.132 191.100 C 255.539 191.042,240.360 190.995,203.400 190.995 C 166.440 190.995,151.379 191.042,169.932 191.100 M256.800 207.618 C 256.362 207.915,256.524 207.952,257.400 207.756 C 258.871 207.427,259.190 207.198,258.167 207.206 C 257.745 207.209,257.130 207.395,256.800 207.618 M147.510 208.401 C 148.230 208.841,149.006 209.200,149.234 209.200 C 149.461 209.200,150.672 210.139,151.924 211.287 L 154.200 213.375 152.400 211.463 C 151.410 210.411,149.730 209.112,148.667 208.575 C 146.331 207.397,145.708 207.303,147.510 208.401 M254.400 208.600 C 253.850 208.914,253.580 209.172,253.800 209.172 C 254.020 209.172,254.650 208.914,255.200 208.600 C 255.750 208.286,256.020 208.028,255.800 208.028 C 255.580 208.028,254.950 208.286,254.400 208.600 M271.667 211.496 C 272.620 212.649,273.888 214.719,274.485 216.096 C 275.081 217.473,275.576 218.397,275.585 218.150 C 275.624 216.984,273.497 213.172,271.810 211.387 L 269.933 209.400 271.667 211.496 M131.477 211.211 C 130.499 211.980,127.996 215.899,128.004 216.649 C 128.006 216.842,128.560 216.010,129.234 214.800 C 129.909 213.590,131.026 212.105,131.716 211.500 C 133.169 210.225,132.997 210.016,131.477 211.211 M246.839 218.792 C 246.271 221.443,246.326 223.414,247.024 225.400 C 247.333 226.280,247.495 226.550,247.383 226.000 C 246.816 223.213,246.748 221.134,247.161 219.209 C 247.411 218.040,247.540 217.007,247.447 216.914 C 247.354 216.821,247.081 217.666,246.839 218.792 M156.093 218.400 C 156.093 219.170,156.175 219.485,156.276 219.100 C 156.376 218.715,156.376 218.085,156.276 217.700 C 156.175 217.315,156.093 217.630,156.093 218.400 M275.737 221.800 C 275.739 223.560,275.809 224.230,275.893 223.289 C 275.978 222.349,275.977 220.909,275.891 220.089 C 275.805 219.270,275.736 220.040,275.737 221.800 M127.693 224.800 C 127.693 225.570,127.775 225.885,127.876 225.500 C 127.976 225.115,127.976 224.485,127.876 224.100 C 127.775 223.715,127.693 224.030,127.693 224.800 M128.032 227.153 C 127.999 227.724,129.510 230.400,129.865 230.400 C 129.975 230.400,129.713 229.815,129.283 229.100 C 128.852 228.385,128.402 227.530,128.282 227.200 C 128.114 226.740,128.056 226.729,128.032 227.153 M155.000 228.502 C 154.560 229.418,153.756 230.714,153.214 231.383 C 152.344 232.457,152.333 232.510,153.115 231.837 C 154.087 231.001,156.087 227.648,155.910 227.150 C 155.850 226.978,155.440 227.587,155.000 228.502 M274.465 227.817 C 273.795 229.288,273.923 229.602,274.647 228.265 C 274.986 227.640,275.188 227.054,275.096 226.963 C 275.005 226.871,274.721 227.256,274.465 227.817 M248.000 228.945 C 248.000 229.282,250.822 233.200,251.065 233.200 C 251.169 233.200,250.849 232.615,250.352 231.900 C 248.889 229.791,248.000 228.675,248.000 228.945 M130.600 231.569 C 131.895 233.101,135.217 235.601,135.936 235.584 C 136.303 235.576,136.064 235.333,135.400 235.042 C 134.740 234.752,133.210 233.639,132.000 232.568 C 130.790 231.498,130.160 231.048,130.600 231.569 M150.200 234.250 C 149.481 234.862,149.334 235.105,149.833 234.857 C 150.566 234.493,151.941 233.176,151.549 233.214 C 151.467 233.222,150.860 233.688,150.200 234.250 M251.967 233.745 C 252.500 234.401,254.000 235.393,254.000 235.089 C 254.000 235.013,253.415 234.522,252.700 233.999 C 251.896 233.410,251.616 233.313,251.967 233.745 M138.000 236.166 C 138.770 236.481,140.660 236.739,142.200 236.739 C 143.740 236.739,145.630 236.481,146.400 236.166 C 147.603 235.673,147.631 235.635,146.600 235.895 C 145.940 236.061,143.960 236.197,142.200 236.197 C 140.440 236.197,138.460 236.061,137.800 235.895 C 136.769 235.635,136.797 235.673,138.000 236.166 M257.200 236.166 C 257.970 236.481,259.860 236.739,261.400 236.739 C 262.940 236.739,264.830 236.481,265.600 236.166 C 266.803 235.673,266.831 235.635,265.800 235.895 C 265.140 236.061,263.160 236.197,261.400 236.197 C 259.640 236.197,257.660 236.061,257.000 235.895 C 255.969 235.635,255.997 235.673,257.200 236.166 M291.915 250.210 C 291.792 250.645,291.569 251.360,291.420 251.800 C 291.271 252.240,291.442 252.094,291.800 251.476 C 292.158 250.858,292.381 250.142,292.295 249.886 C 292.210 249.630,292.039 249.776,291.915 250.210 M111.612 252.445 C 111.592 252.846,113.992 258.000,114.199 258.000 C 114.304 258.000,113.956 257.018,113.425 255.818 C 112.374 253.442,111.631 252.060,111.612 252.445 M288.874 257.117 C 288.162 258.372,287.293 259.850,286.941 260.400 L 286.302 261.400 287.150 260.400 C 288.169 259.199,290.511 255.178,290.309 254.976 C 290.231 254.897,289.585 255.861,288.874 257.117 M115.197 259.644 C 115.646 260.438,116.407 261.428,116.889 261.844 C 117.763 262.598,117.763 262.597,116.865 261.400 C 114.593 258.369,114.307 258.068,115.197 259.644 M283.780 264.459 C 282.471 266.031,279.780 268.854,277.800 270.731 C 275.820 272.609,275.142 273.378,276.294 272.440 C 278.478 270.662,284.309 264.604,285.669 262.700 C 287.071 260.737,286.216 261.533,283.780 264.459 M117.600 262.925 C 117.600 262.994,118.185 263.579,118.900 264.225 L 120.200 265.400 119.025 264.100 C 117.930 262.888,117.600 262.616,117.600 262.925 M122.381 267.694 C 124.333 269.748,130.569 274.400,131.370 274.400 C 131.543 274.400,130.181 273.391,128.342 272.159 C 126.504 270.926,123.920 268.901,122.600 267.659 L 120.200 265.400 122.381 267.694 M272.522 275.029 L 271.400 276.058 272.700 275.154 C 273.415 274.657,274.000 274.193,274.000 274.125 C 274.000 273.809,273.558 274.080,272.522 275.029 M137.800 277.390 C 138.680 277.932,139.580 278.380,139.800 278.385 C 140.020 278.391,139.480 277.952,138.600 277.410 C 137.720 276.868,136.820 276.420,136.600 276.415 C 136.380 276.409,136.920 276.848,137.800 277.390 M262.200 279.600 C 261.696 279.817,261.622 279.944,262.000 279.944 C 262.330 279.944,262.960 279.789,263.400 279.600 C 263.904 279.383,263.978 279.256,263.600 279.256 C 263.270 279.256,262.640 279.411,262.200 279.600 M160.921 284.298 C 163.077 284.371,166.497 284.370,168.521 284.298 C 170.544 284.225,168.780 284.166,164.600 284.167 C 160.420 284.167,158.764 284.226,160.921 284.298 M175.100 284.412 C 176.370 284.923,176.224 285.445,174.500 286.557 C 173.675 287.090,172.370 288.097,171.600 288.796 C 170.161 290.104,172.805 288.310,175.507 286.146 C 176.660 285.222,176.273 283.970,174.851 284.025 C 174.410 284.043,174.491 284.168,175.100 284.412 M238.538 284.299 L 244.876 284.421 247.481 286.242 C 248.914 287.243,249.975 287.883,249.840 287.664 C 249.704 287.445,248.517 286.531,247.201 285.633 L 244.809 284.000 238.505 284.089 L 232.200 284.178 238.538 284.299 M228.184 284.825 C 227.892 285.299,229.083 286.800,229.751 286.800 C 229.986 286.800,229.785 286.525,229.306 286.189 C 228.801 285.836,228.529 285.330,228.660 284.989 C 228.920 284.311,228.576 284.192,228.184 284.825 M153.722 286.629 L 152.600 287.658 153.900 286.754 C 154.615 286.257,155.200 285.793,155.200 285.725 C 155.200 285.409,154.758 285.680,153.722 286.629 M150.922 288.629 L 149.800 289.658 151.100 288.754 C 151.815 288.257,152.400 287.793,152.400 287.725 C 152.400 287.409,151.958 287.680,150.922 288.629 M251.744 289.109 C 252.060 289.621,254.400 291.353,254.400 291.075 C 254.400 290.976,253.739 290.391,252.932 289.775 C 252.124 289.159,251.589 288.859,251.744 289.109 M169.280 290.480 C 168.501 291.259,168.720 292.365,169.700 292.602 C 172.393 293.254,234.916 292.595,235.347 291.911 C 235.654 291.425,235.657 291.097,235.358 290.798 C 235.059 290.499,234.943 290.643,234.967 291.287 L 235.000 292.200 202.288 292.302 C 167.392 292.412,168.067 292.447,169.604 290.595 C 170.195 289.883,169.960 289.800,169.280 290.480 M146.990 291.334 C 145.264 292.569,142.804 294.640,144.000 293.851 C 147.202 291.739,147.958 291.191,148.190 290.816 C 148.531 290.265,148.415 290.315,146.990 291.334 M255.200 291.672 C 256.129 292.592,260.196 295.441,259.903 294.967 C 259.760 294.736,258.508 293.766,257.122 292.812 C 255.735 291.858,254.870 291.345,255.200 291.672 M139.322 297.029 L 138.200 298.058 139.500 297.154 C 140.215 296.657,140.800 296.193,140.800 296.125 C 140.800 295.809,140.358 296.080,139.322 297.029 M136.522 299.029 L 135.400 300.058 136.700 299.154 C 137.415 298.657,138.000 298.193,138.000 298.125 C 138.000 297.809,137.558 298.080,136.522 299.029 M267.967 300.945 C 268.500 301.601,270.000 302.593,270.000 302.289 C 270.000 302.213,269.415 301.722,268.700 301.199 C 267.896 300.610,267.616 300.513,267.967 300.945 M132.590 301.734 C 130.864 302.969,128.404 305.040,129.600 304.251 C 132.802 302.139,133.558 301.591,133.790 301.216 C 134.131 300.665,134.015 300.715,132.590 301.734 M178.069 301.500 C 190.977 301.558,212.217 301.558,225.269 301.500 C 238.321 301.441,227.760 301.394,201.800 301.394 C 175.840 301.393,165.161 301.441,178.069 301.500 M152.000 302.586 C 151.230 303.103,149.970 304.102,149.200 304.807 C 147.862 306.031,147.880 306.026,149.603 304.697 C 150.594 303.932,152.122 302.922,152.997 302.453 C 153.872 301.984,154.321 301.611,153.994 301.624 C 153.667 301.636,152.770 302.070,152.000 302.586 M252.367 303.345 C 252.900 304.001,254.400 304.993,254.400 304.689 C 254.400 304.613,253.815 304.122,253.100 303.599 C 252.296 303.010,252.016 302.913,252.367 303.345 M256.653 306.291 C 257.121 306.681,257.809 307.180,258.181 307.400 C 258.553 307.620,258.889 308.160,258.928 308.600 C 259.008 309.493,146.350 310.110,145.462 309.222 C 145.221 308.981,145.331 308.430,145.763 307.721 C 146.438 306.611,146.435 306.611,145.424 307.800 C 144.863 308.460,144.463 309.180,144.535 309.400 C 144.669 309.807,258.859 310.211,259.917 309.809 C 260.671 309.522,258.982 307.378,257.218 306.382 C 256.096 305.749,255.978 305.729,256.653 306.291 M275.200 306.124 C 275.200 306.217,275.965 306.798,276.900 307.415 C 277.835 308.032,278.389 308.280,278.131 307.968 C 277.634 307.367,275.200 305.836,275.200 306.124 M124.922 307.429 L 123.800 308.458 125.100 307.554 C 125.815 307.057,126.400 306.593,126.400 306.525 C 126.400 306.209,125.958 306.480,124.922 307.429 M122.122 309.429 L 121.000 310.458 122.300 309.554 C 123.015 309.057,123.600 308.593,123.600 308.525 C 123.600 308.209,123.158 308.480,122.122 309.429 M281.600 310.756 C 283.035 312.027,285.600 313.717,285.600 313.392 C 285.600 313.292,284.925 312.765,284.100 312.220 C 283.275 311.676,282.060 310.845,281.400 310.373 C 280.447 309.693,280.489 309.772,281.600 310.756 M116.080 313.805 C 114.716 314.797,113.600 315.703,113.600 315.817 C 113.600 316.005,117.658 313.174,118.580 312.342 C 119.585 311.437,118.307 312.184,116.080 313.805 M286.000 313.725 C 286.000 313.824,286.661 314.409,287.468 315.025 C 288.276 315.641,288.811 315.941,288.656 315.691 C 288.340 315.179,286.000 313.447,286.000 313.725 M290.400 316.943 C 290.400 317.043,291.319 317.785,292.442 318.592 C 293.565 319.399,294.365 319.868,294.221 319.634 C 293.920 319.148,290.400 316.668,290.400 316.943 M128.100 318.412 C 126.847 318.916,126.965 319.270,128.226 318.790 C 130.444 317.947,276.826 318.295,278.200 319.147 C 278.860 319.556,280.660 321.013,282.200 322.385 L 285.000 324.879 282.200 322.180 C 280.660 320.695,278.860 319.148,278.200 318.742 C 276.866 317.921,130.124 317.599,128.100 318.412 M107.800 319.850 C 107.081 320.462,106.934 320.705,107.433 320.457 C 108.166 320.093,109.541 318.776,109.149 318.814 C 109.067 318.822,108.460 319.288,107.800 319.850 M102.922 323.429 L 101.800 324.458 103.100 323.554 C 103.815 323.057,104.400 322.593,104.400 322.525 C 104.400 322.209,103.958 322.480,102.922 323.429 M299.167 323.345 C 299.700 324.001,301.200 324.993,301.200 324.689 C 301.200 324.613,300.615 324.122,299.900 323.599 C 299.096 323.010,298.816 322.913,299.167 323.345 M118.962 325.658 C 118.543 326.131,117.255 327.126,116.100 327.871 C 114.123 329.145,113.533 330.064,114.363 330.577 C 114.562 330.700,114.638 330.466,114.531 330.057 C 114.387 329.506,114.785 329.049,116.068 328.292 C 117.618 327.379,120.475 324.800,119.937 324.800 C 119.820 324.800,119.381 325.186,118.962 325.658 M286.600 326.400 C 287.459 327.280,288.252 328.000,288.362 328.000 C 288.472 328.000,287.859 327.280,287.000 326.400 C 286.141 325.520,285.348 324.800,285.238 324.800 C 285.128 324.800,285.741 325.520,286.600 326.400 M303.600 326.511 C 303.600 326.587,304.185 327.078,304.900 327.601 C 305.704 328.190,305.984 328.287,305.633 327.855 C 305.100 327.199,303.600 326.207,303.600 326.511 M95.800 328.407 C 92.342 330.865,91.360 331.894,91.924 332.467 C 92.359 332.910,92.406 332.892,92.204 332.361 C 92.035 331.916,92.522 331.310,93.810 330.361 C 96.069 328.697,97.870 327.218,97.600 327.247 C 97.490 327.259,96.680 327.781,95.800 328.407 M289.438 328.690 C 289.899 329.096,290.380 329.692,290.506 330.014 C 290.694 330.491,290.743 330.478,290.768 329.946 C 290.786 329.586,290.305 328.991,289.700 328.622 C 288.620 327.965,288.615 327.966,289.438 328.690 M309.376 330.581 C 309.804 330.921,310.286 331.200,310.449 331.200 C 310.611 331.200,310.822 331.605,310.918 332.100 L 311.091 333.000 311.146 332.110 C 311.184 331.475,310.829 331.041,309.900 330.591 C 308.752 330.035,308.691 330.034,309.376 330.581 M182.332 330.700 C 201.764 330.757,233.444 330.757,252.732 330.700 C 272.019 330.643,256.120 330.596,217.400 330.596 C 178.680 330.596,162.899 330.643,182.332 330.700 M122.500 331.099 C 126.625 331.164,133.375 331.164,137.500 331.099 C 141.625 331.034,138.250 330.981,130.000 330.981 C 121.750 330.981,118.375 331.034,122.500 331.099 M105.900 333.100 C 113.215 333.161,125.185 333.161,132.500 333.100 C 139.815 333.039,133.830 332.989,119.200 332.989 C 104.570 332.989,98.585 333.039,105.900 333.100 " stroke="none" fill="#cbd4fc" fill-rule="evenodd"></path><path id="path4" d="M198.200 71.999 C 163.229 72.117,138.269 72.352,137.800 72.568 C 137.360 72.771,136.571 73.266,136.046 73.668 C 135.521 74.071,134.711 74.403,134.246 74.407 C 133.475 74.414,132.325 75.065,128.452 77.687 C 123.003 81.378,115.799 89.809,112.633 96.200 C 109.295 102.941,109.600 94.902,109.600 176.120 C 109.600 247.768,109.602 247.991,110.432 250.692 C 111.175 253.110,112.788 257.047,113.526 258.244 C 117.473 264.641,124.997 271.768,131.000 274.793 C 131.880 275.237,132.949 275.870,133.376 276.200 C 133.804 276.530,134.544 276.800,135.023 276.800 C 135.501 276.800,136.358 277.166,136.927 277.614 C 137.497 278.062,138.556 278.627,139.281 278.870 C 140.007 279.112,140.974 279.648,141.431 280.060 C 142.669 281.177,263.044 281.033,265.000 279.913 C 265.660 279.534,266.830 278.959,267.600 278.634 C 268.370 278.309,269.540 277.737,270.200 277.362 C 270.860 276.986,271.598 276.572,271.840 276.440 C 275.214 274.602,285.803 264.458,286.988 261.927 C 287.330 261.197,288.318 259.610,289.184 258.400 C 290.049 257.190,290.766 256.002,290.778 255.760 C 290.790 255.517,291.247 254.479,291.793 253.452 C 293.532 250.180,293.600 247.247,293.589 175.600 C 293.579 105.998,293.479 101.190,292.008 99.319 C 291.563 98.754,291.197 98.001,291.194 97.646 C 291.191 97.291,290.966 96.619,290.694 96.154 C 290.422 95.689,289.770 94.519,289.245 93.554 C 286.481 88.478,277.505 79.314,272.600 76.560 C 271.940 76.190,270.971 75.552,270.446 75.143 C 269.921 74.735,269.149 74.400,268.730 74.400 C 268.311 74.400,267.457 74.022,266.833 73.561 C 266.041 72.976,264.686 72.610,262.349 72.352 C 260.507 72.148,258.730 71.940,258.400 71.890 C 258.070 71.840,230.980 71.889,198.200 71.999 M261.602 72.824 C 263.594 73.074,265.499 73.567,266.239 74.024 C 266.929 74.451,267.743 74.804,268.047 74.808 C 268.589 74.816,271.977 76.771,275.049 78.849 C 277.450 80.473,283.555 86.671,286.033 90.000 C 288.259 92.991,289.335 94.851,291.472 99.400 L 292.600 101.800 292.600 175.800 L 292.600 249.800 291.486 252.400 C 288.852 258.549,286.346 262.276,281.157 267.758 C 277.662 271.451,271.613 276.400,270.594 276.400 C 270.326 276.400,269.679 276.737,269.154 277.149 C 268.629 277.561,266.559 278.461,264.553 279.149 L 260.905 280.400 201.906 280.400 C 145.880 280.400,142.860 280.364,141.954 279.685 C 140.580 278.656,136.400 276.574,135.032 276.238 C 134.389 276.080,133.420 275.602,132.878 275.175 C 132.336 274.749,131.704 274.400,131.474 274.400 C 128.148 274.400,115.671 261.682,112.805 255.370 C 110.249 249.741,110.414 255.224,110.407 176.132 C 110.399 98.850,110.327 101.673,112.395 98.200 C 112.787 97.540,113.243 96.557,113.408 96.016 C 115.160 90.253,128.256 77.168,134.461 74.978 C 135.277 74.691,136.388 74.164,136.932 73.808 C 137.476 73.452,139.063 73.012,140.460 72.831 C 144.387 72.322,257.544 72.315,261.602 72.824 M134.400 111.747 C 131.292 112.289,129.413 113.442,126.300 116.719 L 124.000 119.141 124.000 150.110 L 124.000 181.080 125.134 182.640 C 126.658 184.737,131.095 188.800,131.861 188.800 C 132.200 188.800,133.044 189.205,133.738 189.700 L 135.000 190.600 202.800 190.714 C 240.090 190.777,271.171 190.727,271.869 190.602 C 274.033 190.215,277.327 186.529,278.574 183.095 L 279.626 180.200 279.513 149.800 L 279.400 119.400 278.228 117.271 C 276.356 113.869,274.171 112.212,270.836 111.661 C 266.920 111.014,138.142 111.096,134.400 111.747 M270.761 112.259 C 273.720 112.568,276.641 115.080,278.136 118.600 C 279.255 121.235,279.716 177.077,278.647 180.400 C 278.328 181.390,277.870 182.948,277.629 183.862 C 276.900 186.623,273.325 189.881,270.683 190.192 C 269.537 190.327,238.690 190.384,202.133 190.318 L 135.667 190.200 134.474 189.318 C 133.817 188.832,132.767 188.309,132.140 188.154 C 130.761 187.813,125.426 182.648,124.828 181.074 C 124.279 179.630,124.228 120.879,124.774 119.526 C 125.206 118.456,128.959 114.400,129.517 114.400 C 129.723 114.400,130.401 113.999,131.024 113.510 C 131.646 113.020,132.976 112.504,133.978 112.363 C 136.386 112.024,267.561 111.925,270.761 112.259 M138.800 207.562 C 127.426 210.166,123.644 225.071,132.381 232.858 C 138.144 237.995,148.133 237.479,152.889 231.800 C 161.887 221.056,152.253 204.482,138.800 207.562 M257.400 207.753 C 249.110 210.612,245.540 216.813,247.317 225.264 C 250.880 242.215,275.665 239.259,275.585 221.892 C 275.540 212.135,266.062 204.766,257.400 207.753 M146.909 208.800 C 147.469 209.240,148.224 209.600,148.587 209.600 C 149.670 209.600,153.318 213.366,154.500 215.705 C 156.166 218.998,156.126 224.947,154.417 228.288 C 152.263 232.498,149.735 234.527,145.808 235.199 C 138.420 236.462,132.994 234.337,129.741 228.905 C 128.099 226.164,128.020 217.557,129.612 215.040 C 130.953 212.921,133.978 210.045,135.200 209.726 C 135.750 209.582,136.740 209.136,137.400 208.734 C 139.202 207.636,145.485 207.680,146.909 208.800 M266.200 208.800 C 266.860 209.237,267.744 209.596,268.165 209.597 C 269.092 209.601,273.600 214.262,273.600 215.218 C 273.600 215.592,273.982 216.761,274.448 217.816 C 275.448 220.076,275.347 224.569,274.252 226.600 C 273.896 227.260,273.604 228.090,273.602 228.444 C 273.595 230.501,269.085 234.352,265.878 235.040 C 253.850 237.621,246.432 230.961,247.991 218.982 C 248.593 214.354,251.171 210.694,254.600 209.598 C 255.480 209.316,256.555 208.842,256.989 208.543 C 258.306 207.636,264.713 207.815,266.200 208.800 M155.689 284.311 C 155.297 284.703,154.427 285.378,153.755 285.811 C 153.083 286.245,151.873 287.023,151.066 287.540 C 150.260 288.056,149.600 288.651,149.600 288.860 C 149.600 289.070,149.060 289.430,148.400 289.660 C 147.740 289.890,147.200 290.236,147.200 290.429 C 147.200 290.622,146.615 291.080,145.900 291.447 C 145.185 291.814,144.217 292.494,143.750 292.957 C 143.282 293.421,142.240 294.250,141.433 294.800 C 140.627 295.350,139.352 296.250,138.600 296.800 C 137.848 297.350,136.588 298.250,135.800 298.800 C 135.012 299.350,133.752 300.250,133.000 300.800 C 132.248 301.350,130.979 302.250,130.181 302.800 C 129.382 303.350,128.136 304.295,127.412 304.900 C 126.687 305.505,125.925 306.000,125.717 306.000 C 125.509 306.000,124.917 306.450,124.400 307.000 C 123.883 307.550,123.291 308.000,123.083 308.000 C 122.875 308.000,122.106 308.495,121.373 309.100 C 118.756 311.259,118.210 311.652,114.500 314.042 C 113.785 314.502,113.200 315.031,113.200 315.218 C 113.200 315.404,112.775 315.791,112.256 316.078 C 110.297 317.160,107.788 318.936,107.480 319.458 C 107.304 319.756,106.968 320.000,106.733 320.000 C 106.498 320.000,105.713 320.495,104.988 321.100 C 104.264 321.705,103.018 322.650,102.219 323.200 C 101.421 323.750,100.152 324.650,99.400 325.200 C 98.648 325.750,97.379 326.650,96.581 327.200 C 95.782 327.750,94.559 328.650,93.863 329.200 C 93.167 329.750,92.238 330.399,91.799 330.643 C 90.727 331.237,90.548 332.426,91.433 333.074 C 92.761 334.045,310.867 333.831,311.748 332.858 C 312.659 331.850,312.211 330.932,310.537 330.379 C 309.771 330.126,309.050 329.674,308.935 329.375 C 308.820 329.075,308.414 328.732,308.034 328.611 C 307.653 328.490,306.977 328.052,306.533 327.638 C 306.088 327.224,305.157 326.591,304.462 326.232 C 303.768 325.873,303.199 325.449,303.199 325.290 C 303.198 325.130,301.848 324.104,300.199 323.009 C 298.549 321.915,297.200 320.880,297.200 320.709 C 297.200 320.539,296.937 320.400,296.616 320.400 C 296.295 320.400,295.530 319.941,294.916 319.381 C 292.990 317.622,290.711 316.000,290.168 316.000 C 289.880 316.000,289.409 315.685,289.119 315.300 C 288.440 314.397,286.597 313.018,284.700 311.994 C 283.875 311.548,283.200 311.036,283.200 310.856 C 283.200 310.676,282.757 310.327,282.216 310.080 C 281.674 309.833,280.909 309.351,280.516 309.009 C 278.319 307.098,276.847 306.000,276.481 306.000 C 276.254 306.000,275.648 305.645,275.134 305.211 C 272.263 302.786,270.700 301.622,270.028 301.409 C 269.613 301.277,269.173 300.906,269.050 300.585 C 268.926 300.263,268.618 300.000,268.365 300.000 C 268.112 300.000,267.303 299.505,266.568 298.900 C 264.122 296.890,262.928 296.041,261.859 295.554 C 261.276 295.289,260.800 294.938,260.800 294.775 C 260.800 294.612,260.215 294.106,259.500 293.649 C 258.785 293.193,257.570 292.362,256.800 291.803 C 256.030 291.245,254.860 290.436,254.200 290.007 C 252.883 289.150,251.849 288.369,249.827 286.700 C 249.094 286.095,248.364 285.600,248.205 285.600 C 248.046 285.600,247.381 285.150,246.727 284.600 C 245.190 283.306,229.051 283.007,227.809 284.249 C 226.898 285.159,227.195 286.096,228.619 286.809 C 230.047 287.524,234.878 291.256,234.658 291.475 C 234.449 291.685,169.943 291.677,169.734 291.467 C 169.640 291.373,170.336 290.736,171.282 290.052 C 172.227 289.367,173.360 288.521,173.800 288.172 C 174.240 287.823,175.185 287.194,175.900 286.775 C 177.331 285.935,177.529 285.186,176.571 284.229 C 175.562 283.219,156.706 283.294,155.689 284.311 M176.038 284.646 C 176.641 285.373,176.589 285.427,171.816 288.965 C 167.136 292.434,164.939 292.200,202.205 292.200 C 232.120 292.200,235.000 292.143,235.000 291.554 C 235.000 290.910,230.422 286.800,229.703 286.800 C 229.495 286.800,228.983 286.424,228.567 285.964 C 227.071 284.310,228.415 284.000,237.086 284.000 L 244.819 284.000 246.961 285.500 C 249.991 287.622,256.957 292.647,259.837 294.788 C 261.177 295.785,262.677 296.870,263.170 297.200 C 264.396 298.021,270.514 302.418,273.200 304.409 C 274.410 305.306,277.086 307.245,279.147 308.720 C 281.208 310.194,284.088 312.255,285.547 313.300 C 287.006 314.344,289.280 315.954,290.600 316.876 C 291.920 317.798,294.080 319.376,295.400 320.382 C 296.720 321.388,298.830 322.929,300.089 323.806 C 301.348 324.683,303.058 325.896,303.889 326.503 C 306.836 328.655,308.856 330.009,310.021 330.611 C 311.298 331.271,311.599 332.561,310.567 332.957 C 308.962 333.573,92.973 333.216,92.176 332.596 C 91.262 331.885,92.110 330.994,96.800 327.738 C 98.230 326.746,100.120 325.402,101.000 324.753 C 101.880 324.104,103.230 323.130,104.000 322.590 C 108.295 319.574,115.837 314.100,120.906 310.320 C 122.175 309.374,123.831 308.150,124.587 307.600 C 128.539 304.724,137.119 298.536,139.000 297.205 C 139.660 296.737,141.460 295.421,143.000 294.279 C 145.568 292.375,148.370 290.360,152.000 287.809 C 152.770 287.268,154.300 286.192,155.400 285.419 L 157.400 284.012 166.451 284.006 C 174.299 284.001,175.573 284.086,176.038 284.646 M152.987 302.500 C 148.582 304.977,144.846 308.303,145.422 309.236 C 145.723 309.723,258.677 309.723,258.978 309.236 C 259.558 308.296,255.675 305.153,250.675 302.516 L 249.000 301.633 201.794 301.616 L 154.588 301.600 152.987 302.500 M250.088 303.024 C 251.095 303.367,252.235 303.997,252.622 304.424 C 253.008 304.851,253.541 305.200,253.806 305.200 C 254.434 305.200,257.730 307.809,257.543 308.159 C 257.465 308.307,232.470 308.422,202.000 308.414 C 146.254 308.400,145.145 308.374,147.332 307.135 C 147.590 306.989,148.226 306.500,148.748 306.047 C 149.269 305.594,150.034 305.116,150.448 304.985 C 150.861 304.854,151.200 304.585,151.200 304.387 C 151.200 303.928,152.656 303.144,154.200 302.771 C 156.917 302.116,248.128 302.356,250.088 303.024 M128.026 318.840 C 127.490 319.054,126.209 319.987,125.179 320.914 C 122.432 323.386,118.152 326.839,116.256 328.112 C 112.599 330.569,112.780 330.599,131.000 330.607 L 147.400 330.614 131.415 330.502 C 115.461 330.391,113.638 330.221,115.890 329.057 C 116.540 328.721,118.496 327.267,120.236 325.826 C 121.976 324.386,123.904 322.800,124.521 322.303 C 125.138 321.807,126.100 320.950,126.660 320.400 L 127.677 319.400 202.599 319.297 L 277.520 319.194 280.260 321.498 C 281.767 322.765,283.900 324.657,285.000 325.702 C 286.100 326.747,287.584 328.006,288.297 328.501 C 289.763 329.517,289.783 330.054,288.370 330.449 C 287.468 330.701,287.461 330.723,288.267 330.760 C 289.514 330.817,290.400 330.401,290.400 329.757 C 290.400 329.451,290.255 329.200,290.077 329.200 C 289.899 329.200,287.424 327.111,284.577 324.557 C 281.730 322.003,278.860 319.574,278.200 319.158 C 276.832 318.298,130.162 317.987,128.026 318.840 " stroke="none" fill="#bfc9fc" fill-rule="evenodd"></path></g></svg>