<svg xmlns="http://www.w3.org/2000/svg" width="500" height="500" viewBox="0 0 500 500" version="1.1"><path d="M 174 91.638 C 162.379 95.546, 147.986 108.528, 142 120.500 L 138.500 127.500 138.500 219.500 C 138.500 307.776, 138.578 311.702, 140.418 316.500 C 144.910 328.214, 154.480 337.620, 169.429 345.012 L 179.593 350.038 254.546 349.769 L 329.500 349.500 335.500 346.625 C 344.067 342.519, 357.569 328.728, 362.102 319.452 L 365.500 312.500 365.777 222 C 366.086 120.726, 366.506 127.164, 358.813 115.262 C 353.606 107.207, 344.015 98.297, 336.466 94.500 L 330.500 91.500 253 91.317 C 210.375 91.216, 174.825 91.360, 174 91.638 M 164.500 140.413 C 162.850 141.156, 159.925 143.417, 158 145.438 L 154.500 149.112 154.500 188.008 L 154.500 226.904 158.500 231.037 C 166.836 239.649, 158.947 239, 255.257 239 L 340.594 239 344.238 235.250 C 346.241 233.188, 348.358 230.233, 348.940 228.685 C 349.619 226.883, 350 212.193, 350 187.885 C 350 146.861, 350.036 147.159, 344.515 142 L 341.839 139.500 254.670 139.281 C 183.226 139.101, 166.959 139.305, 164.500 140.413 M 168.804 261.041 C 166.771 262.114, 163.858 264.630, 162.331 266.632 C 159.889 269.835, 159.556 271.139, 159.556 277.500 C 159.556 283.809, 159.898 285.178, 162.251 288.262 C 165.409 292.402, 172.243 296, 176.950 296 C 188.177 296, 195.973 288.002, 195.994 276.462 C 196.003 271.806, 191.976 264.854, 187.500 261.798 C 182.476 258.368, 174.478 258.044, 168.804 261.041 M 318.773 260.372 C 307.999 265.150, 304.808 279.371, 312.312 289.171 C 318.403 297.126, 331.388 298.321, 338.847 291.611 C 348.683 282.764, 346.382 267.023, 334.264 260.250 C 331.472 258.690, 322.406 258.761, 318.773 260.372 M 174.357 371.329 C 162.178 380.223, 143.850 393.575, 133.628 401 C 123.405 408.425, 115.032 414.837, 115.021 415.250 C 115.009 415.663, 176.650 416, 252 416 C 331.724 416, 389 415.627, 389 415.107 C 389 414.616, 388.310 413.949, 387.467 413.626 C 386.207 413.142, 337.194 378.175, 325.039 369.088 C 323.135 367.664, 320.599 365.825, 319.402 365 C 318.205 364.175, 314.475 361.571, 311.113 359.212 L 304.999 354.925 295.831 355.212 C 290.788 355.371, 286.543 355.950, 286.397 356.500 C 286.251 357.050, 287.988 358.850, 290.257 360.500 C 292.525 362.150, 294.408 363.950, 294.441 364.500 C 294.479 365.148, 279.793 365.592, 252.750 365.761 C 206.644 366.049, 207.124 366.122, 215.514 360.097 C 217.997 358.314, 219.771 356.438, 219.455 355.928 C 219.140 355.417, 213.846 355.036, 207.691 355.079 L 196.500 355.158 174.357 371.329 M 186.104 381.321 C 183.136 383.693, 180.773 385.953, 180.854 386.343 C 181.018 387.139, 324 387.303, 324 386.508 C 324 386.228, 324 385.614, 324 385.142 C 324 384.670, 321.345 382.645, 318.099 380.642 L 312.199 377 251.849 377.004 L 191.500 377.008 186.104 381.321 M 160.710 398 C 158.292 398.997, 142.057 412.284, 142.461 412.936 C 142.807 413.496, 363.108 413.191, 363.695 412.630 C 363.802 412.528, 360.325 409.307, 355.969 405.472 L 348.048 398.500 254.986 398 C 203.801 397.725, 161.377 397.725, 160.710 398" stroke="none" fill="#07080a" fill-rule="evenodd"/><path d="M 230.490 0.865 C 229.946 1.385, 225.900 2.071, 221.500 2.389 C 207.629 3.391, 199.573 4.521, 197.316 5.781 C 196.114 6.451, 193.778 7, 192.125 7 C 190.471 7, 188.840 7.450, 188.500 8 C 188.160 8.550, 186.731 9, 185.325 9 C 182.810 9, 174.164 11.459, 170.764 13.141 C 169.809 13.613, 168.207 14, 167.205 14 C 166.202 14, 164.509 14.661, 163.441 15.468 C 162.374 16.276, 160.782 16.951, 159.904 16.968 C 159.026 16.986, 157.001 17.628, 155.404 18.395 C 153.807 19.162, 148.900 21.439, 144.500 23.455 C 140.100 25.471, 135.825 27.535, 135 28.043 C 134.175 28.550, 131.676 29.844, 129.446 30.918 C 127.216 31.992, 123.009 34.475, 120.096 36.436 C 117.182 38.396, 114.394 40, 113.900 40 C 113.405 40, 113 40.450, 113 41 C 113 41.550, 112.433 42, 111.740 42 C 111.047 42, 109.266 43.125, 107.783 44.500 C 106.301 45.875, 104.726 47, 104.283 47 C 103.841 47, 102.359 48.033, 100.990 49.295 C 99.620 50.557, 95.914 53.496, 92.752 55.825 C 85.051 61.499, 59.514 87.005, 54.030 94.500 C 51.615 97.800, 49.373 100.725, 49.046 101 C 48.080 101.814, 35.430 121.197, 33.384 125 C 32.348 126.925, 31.275 128.725, 31 129 C 30.525 129.475, 25.325 139.989, 19.617 152.014 C 18.178 155.047, 16.986 158.197, 16.968 159.014 C 16.951 159.831, 16.276 161.374, 15.468 162.441 C 14.661 163.509, 14 165.202, 14 166.205 C 14 167.207, 13.610 168.809, 13.134 169.764 C 11.522 172.996, 9.752 178.484, 9.264 181.759 C 8.997 183.552, 8.379 185.266, 7.890 185.568 C 7.400 185.871, 7 187.696, 7 189.625 C 7 191.553, 6.492 194.082, 5.870 195.243 C 4.778 197.284, 4.067 201.106, 1.827 217 C 0.449 226.778, 0.461 273.349, 1.845 283 C 2.436 287.125, 3.295 293.200, 3.753 296.500 C 4.211 299.800, 5.129 303.483, 5.793 304.684 C 6.457 305.886, 7 308.447, 7 310.375 C 7 312.304, 7.400 314.129, 7.890 314.432 C 8.379 314.734, 8.997 316.448, 9.264 318.241 C 9.752 321.516, 11.522 327.004, 13.134 330.236 C 13.610 331.191, 14 332.793, 14 333.795 C 14 334.798, 14.661 336.491, 15.468 337.559 C 16.276 338.626, 16.951 340.246, 16.968 341.158 C 16.986 342.069, 18.067 344.994, 19.371 347.658 C 20.675 350.321, 23.684 356.550, 26.058 361.500 C 28.432 366.450, 30.741 370.650, 31.188 370.833 C 31.634 371.017, 32 371.776, 32 372.522 C 32 373.998, 43.175 390.880, 52.359 403.278 C 59.486 412.900, 87.631 441.342, 94.140 445.500 C 95.001 446.050, 99.122 449.087, 103.299 452.250 C 107.476 455.412, 111.367 458, 111.947 458 C 112.526 458, 113 458.398, 113 458.883 C 113 459.369, 113.787 460.031, 114.750 460.354 C 116.451 460.925, 119.990 462.990, 121 464 C 121.821 464.821, 125.244 466.835, 129.500 469 C 131.700 470.119, 134.175 471.436, 135 471.926 C 135.825 472.416, 140.550 474.713, 145.500 477.031 C 150.450 479.349, 155.281 481.641, 156.236 482.123 C 157.191 482.605, 158.639 483, 159.453 483 C 160.266 483, 162.635 483.737, 164.716 484.639 C 166.797 485.540, 169.400 486.598, 170.500 486.989 C 171.600 487.381, 174.075 488.275, 176 488.976 C 177.925 489.677, 180.967 490.469, 182.759 490.736 C 184.552 491.003, 186.266 491.621, 186.568 492.110 C 186.871 492.600, 188.696 493, 190.625 493 C 192.553 493, 195.100 493.518, 196.283 494.152 C 198.476 495.325, 204.454 496.313, 220.500 498.155 C 232.105 499.487, 266.895 499.487, 278.500 498.155 C 294.546 496.313, 300.524 495.325, 302.717 494.152 C 303.900 493.518, 306.447 493, 308.375 493 C 310.304 493, 312.129 492.600, 312.432 492.110 C 312.734 491.621, 314.448 491.003, 316.241 490.736 C 319.516 490.248, 325.004 488.478, 328.236 486.866 C 329.191 486.390, 330.793 486, 331.795 486 C 332.798 486, 334.491 485.339, 335.559 484.532 C 336.626 483.724, 338.294 483.049, 339.264 483.032 C 341.037 483, 341.717 482.733, 347.831 479.669 C 349.663 478.751, 351.763 478, 352.498 478 C 353.232 478, 353.983 477.662, 354.167 477.250 C 354.473 476.561, 359.401 473.983, 363 472.629 C 363.825 472.318, 366.750 470.706, 369.500 469.045 C 372.250 467.385, 375.175 465.711, 376 465.326 C 380.507 463.223, 403.536 447.360, 407.619 443.546 C 408.235 442.971, 411.138 440.475, 414.070 438 C 421.992 431.313, 436.658 416.266, 441.361 410 C 443.631 406.975, 445.745 404.275, 446.059 404 C 448.298 402.036, 463.433 380.039, 465.324 376 C 465.710 375.175, 467.371 372.250, 469.015 369.500 C 472.296 364.012, 478 352.317, 478 351.079 C 478 350.649, 479.125 348.182, 480.500 345.596 C 481.875 343.010, 483.014 340.130, 483.032 339.197 C 483.049 338.264, 483.724 336.626, 484.532 335.559 C 485.339 334.491, 486 332.798, 486 331.795 C 486 330.793, 486.387 329.191, 486.859 328.236 C 488.394 325.133, 491 316.285, 491 314.175 C 491 313.044, 491.450 311.840, 492 311.500 C 492.550 311.160, 493 309.363, 493 307.506 C 493 305.649, 493.524 302.863, 494.165 301.315 C 495.448 298.216, 496.536 290.720, 497.912 275.500 C 498.410 270, 498.929 265.275, 499.066 265 C 499.202 264.725, 499.623 266.750, 500 269.500 C 500.377 272.250, 500.681 263.025, 500.675 249 C 500.669 234.975, 500.385 226.200, 500.045 229.500 C 499.277 236.941, 498.316 234.230, 497.563 222.500 C 496.835 211.167, 495.522 201.963, 494.165 198.685 C 493.524 197.137, 493 194.351, 493 192.494 C 493 190.637, 492.550 188.840, 492 188.500 C 491.450 188.160, 491 186.420, 491 184.632 C 491 182.845, 490.339 180.509, 489.532 179.441 C 488.724 178.374, 488.049 176.289, 488.032 174.809 C 488.014 173.329, 487.550 171.840, 487 171.500 C 486.450 171.160, 486 169.870, 486 168.632 C 486 167.395, 485.339 165.509, 484.532 164.441 C 483.724 163.374, 483.049 161.754, 483.032 160.842 C 483.014 159.931, 481.938 157.006, 480.640 154.342 C 477.755 148.424, 473.426 139.037, 472.642 137 C 472.324 136.175, 470.706 133.250, 469.045 130.500 C 467.385 127.750, 465.710 124.825, 465.324 124 C 462.657 118.304, 445.332 94.239, 437.967 86 C 426.027 72.643, 407.308 55, 405.076 55 C 404.576 55, 404.017 54.625, 403.833 54.166 C 403.173 52.515, 381.125 37.076, 376 34.676 C 375.175 34.290, 372.250 32.637, 369.500 31.004 C 363.069 27.185, 350.622 21.191, 343 18.244 C 341.625 17.712, 338.797 16.540, 336.716 15.639 C 334.635 14.737, 332.266 14, 331.453 14 C 330.639 14, 329.191 13.595, 328.236 13.100 C 327.281 12.604, 323.800 11.438, 320.500 10.508 C 317.200 9.577, 313.118 8.407, 311.429 7.908 C 309.740 7.409, 307.348 7, 306.113 7 C 304.879 7, 302.886 6.451, 301.684 5.781 C 300.483 5.110, 296.350 4.213, 292.500 3.787 C 288.650 3.362, 281.675 2.518, 277 1.913 C 265.500 0.425, 231.748 -0.336, 230.490 0.865 M 174 91.638 C 162.379 95.546, 147.986 108.528, 142 120.500 L 138.500 127.500 138.500 219.500 C 138.500 307.776, 138.578 311.702, 140.418 316.500 C 144.910 328.214, 154.480 337.620, 169.429 345.012 L 179.593 350.038 254.546 349.769 L 329.500 349.500 335.500 346.625 C 344.067 342.519, 357.569 328.728, 362.102 319.452 L 365.500 312.500 365.777 222 C 366.086 120.726, 366.506 127.164, 358.813 115.262 C 353.606 107.207, 344.015 98.297, 336.466 94.500 L 330.500 91.500 253 91.317 C 210.375 91.216, 174.825 91.360, 174 91.638 M 164.500 140.413 C 162.850 141.156, 159.925 143.417, 158 145.438 L 154.500 149.112 154.500 188.008 L 154.500 226.904 158.500 231.037 C 166.836 239.649, 158.947 239, 255.257 239 L 340.594 239 344.238 235.250 C 346.241 233.188, 348.358 230.233, 348.940 228.685 C 349.619 226.883, 350 212.193, 350 187.885 C 350 146.861, 350.036 147.159, 344.515 142 L 341.839 139.500 254.670 139.281 C 183.226 139.101, 166.959 139.305, 164.500 140.413 M 0.435 250 C 0.435 264.025, 0.575 269.762, 0.747 262.750 C 0.919 255.738, 0.919 244.263, 0.747 237.250 C 0.575 230.238, 0.435 235.975, 0.435 250 M 168.804 261.041 C 166.771 262.114, 163.858 264.630, 162.331 266.632 C 159.889 269.835, 159.556 271.139, 159.556 277.500 C 159.556 283.809, 159.898 285.178, 162.251 288.262 C 165.409 292.402, 172.243 296, 176.950 296 C 188.177 296, 195.973 288.002, 195.994 276.462 C 196.003 271.806, 191.976 264.854, 187.500 261.798 C 182.476 258.368, 174.478 258.044, 168.804 261.041 M 318.773 260.372 C 307.999 265.150, 304.808 279.371, 312.312 289.171 C 318.403 297.126, 331.388 298.321, 338.847 291.611 C 348.683 282.764, 346.382 267.023, 334.264 260.250 C 331.472 258.690, 322.406 258.761, 318.773 260.372 M 174.357 371.329 C 162.178 380.223, 143.850 393.575, 133.628 401 C 123.405 408.425, 115.032 414.837, 115.021 415.250 C 115.009 415.663, 176.650 416, 252 416 C 331.724 416, 389 415.627, 389 415.107 C 389 414.616, 388.310 413.949, 387.467 413.626 C 386.207 413.142, 337.194 378.175, 325.039 369.088 C 323.135 367.664, 320.599 365.825, 319.402 365 C 318.205 364.175, 314.475 361.571, 311.113 359.212 L 304.999 354.925 295.831 355.212 C 290.788 355.371, 286.543 355.950, 286.397 356.500 C 286.251 357.050, 287.988 358.850, 290.257 360.500 C 292.525 362.150, 294.408 363.950, 294.441 364.500 C 294.479 365.148, 279.793 365.592, 252.750 365.761 C 206.644 366.049, 207.124 366.122, 215.514 360.097 C 217.997 358.314, 219.771 356.438, 219.455 355.928 C 219.140 355.417, 213.846 355.036, 207.691 355.079 L 196.500 355.158 174.357 371.329 M 186.104 381.321 C 183.136 383.693, 180.773 385.953, 180.854 386.343 C 181.018 387.139, 324 387.303, 324 386.508 C 324 386.228, 324 385.614, 324 385.142 C 324 384.670, 321.345 382.645, 318.099 380.642 L 312.199 377 251.849 377.004 L 191.500 377.008 186.104 381.321 M 160.710 398 C 158.292 398.997, 142.057 412.284, 142.461 412.936 C 142.807 413.496, 363.108 413.191, 363.695 412.630 C 363.802 412.528, 360.325 409.307, 355.969 405.472 L 348.048 398.500 254.986 398 C 203.801 397.725, 161.377 397.725, 160.710 398" stroke="none" fill="#a2b2fa" fill-rule="evenodd"/></svg>