<svg xmlns="http://www.w3.org/2000/svg" width="500" height="500" viewBox="0 0 500 500" version="1.1"><path d="M 229.357 110.992 C 223.786 113.240, 222.090 122.181, 226.414 126.505 C 229.567 129.658, 233.313 130.527, 237.059 128.975 C 240.982 127.351, 243 124.374, 243 120.212 C 243 115.819, 241.591 113.357, 238.020 111.510 C 234.777 109.834, 232.556 109.701, 229.357 110.992 M 261.775 111.509 C 251.445 117.303, 259.128 133.503, 270.059 128.975 C 274.080 127.310, 276 124.355, 276 119.833 C 276 112.536, 268.143 107.938, 261.775 111.509 M 198.732 136.991 C 188.118 138.880, 179.232 145.395, 173.930 155.174 L 170.500 161.500 170.500 235 L 170.500 308.500 173.294 314.190 C 176.657 321.038, 185.125 329.118, 191.483 331.547 C 193.967 332.495, 196 333.675, 196 334.167 C 196 334.660, 188.017 347.086, 178.260 361.781 C 168.503 376.477, 160.365 388.837, 160.176 389.250 C 159.988 389.662, 165.208 390, 171.778 390 L 183.722 390 196.042 371.938 C 202.818 362.004, 209.151 353.454, 210.115 352.938 C 212.943 351.425, 288.257 351.718, 290.217 353.250 C 291.097 353.938, 297.085 362.297, 303.525 371.826 C 309.964 381.355, 315.770 389.358, 316.427 389.611 C 317.085 389.863, 322.617 389.941, 328.721 389.785 L 339.820 389.500 322.343 363.500 C 312.730 349.200, 304.459 336.768, 303.963 335.872 C 303.226 334.544, 304.226 333.671, 309.403 331.122 C 316.959 327.403, 323.164 321.015, 326.840 313.175 L 329.500 307.500 329.783 237.618 C 330.031 176.133, 329.874 167.061, 328.472 162.118 C 325.424 151.368, 317.139 142.262, 306.799 138.297 C 303.050 136.860, 296.165 136.617, 253 136.396 C 225.775 136.256, 201.354 136.524, 198.732 136.991 M 228.655 145.829 C 227.446 147.165, 227 149.548, 227 154.674 C 227 165.191, 226.571 165, 250.257 165 C 273.695 165, 273 165.319, 273 154.584 C 273 143.774, 273.496 144, 249.826 144 C 232.189 144, 230.151 144.176, 228.655 145.829 M 201.749 173.377 C 196.438 174.846, 193.565 177.056, 191.190 181.498 C 189.122 185.366, 188.224 211.403, 189.939 217.773 C 191.435 223.329, 196.223 228.690, 200.832 229.970 C 203.077 230.593, 222.367 230.991, 250.538 230.994 C 296.315 231, 296.601 230.987, 300.980 228.750 C 307.974 225.176, 309.412 222.405, 310.043 211.290 C 310.342 206.027, 310.324 197.374, 310.004 192.061 C 309.336 180.997, 307.625 177.531, 301.270 174.373 C 297.773 172.635, 294.209 172.484, 252 172.281 C 216.934 172.113, 205.411 172.364, 201.749 173.377 M 200.315 284.071 C 193.026 286.251, 188.218 294.732, 189.955 302.347 C 193.853 319.430, 220.385 316.716, 220.385 299.234 C 220.385 288.571, 210.425 281.047, 200.315 284.071 M 286.966 285.250 C 281.994 287.760, 278.044 293.579, 278.016 298.434 C 277.992 302.858, 281.729 309.669, 285.439 311.962 C 290.168 314.885, 299.223 314.780, 303.703 311.750 C 307.324 309.301, 311 302.826, 311 298.896 C 311 297.536, 309.988 294.416, 308.750 291.962 C 306.239 286.982, 299.907 283, 294.500 283 C 292.808 283, 289.418 284.012, 286.966 285.250" stroke="none" fill="#faf9fb" fill-rule="evenodd"/><path d="M 218 1.569 C 187.605 5.459, 161.493 13.709, 134.146 28.063 C 86.308 53.172, 49.421 91.154, 24.951 140.500 C 7.714 175.261, -0 209.117, -0 250.008 C -0 290.749, 7.773 324.857, 24.951 359.500 C 37.928 385.669, 52.433 406.106, 72.070 425.886 C 110.532 464.629, 157.974 489.035, 211.500 497.614 C 226.973 500.093, 263.350 500.608, 279.950 498.583 C 309.500 494.976, 333.770 487.800, 359.500 475.061 C 410.709 449.707, 448.823 411.725, 474.634 360.327 C 487.263 335.178, 496.353 304.585, 498.583 279.722 C 498.967 275.444, 499.668 271.705, 500.140 271.413 C 500.613 271.121, 501 260.982, 501 248.882 C 501 236.772, 500.611 227.122, 500.136 227.416 C 499.660 227.710, 498.960 224.474, 498.578 220.225 C 496.397 195.902, 487.515 165.790, 475.080 140.557 C 449.804 89.266, 410.975 50.425, 359.500 24.939 C 334.126 12.376, 309.663 5.082, 281.030 1.542 C 265.749 -0.348, 232.863 -0.334, 218 1.569 M 229.357 110.992 C 223.786 113.240, 222.090 122.181, 226.414 126.505 C 229.567 129.658, 233.313 130.527, 237.059 128.975 C 240.982 127.351, 243 124.374, 243 120.212 C 243 115.819, 241.591 113.357, 238.020 111.510 C 234.777 109.834, 232.556 109.701, 229.357 110.992 M 261.775 111.509 C 251.445 117.303, 259.128 133.503, 270.059 128.975 C 274.080 127.310, 276 124.355, 276 119.833 C 276 112.536, 268.143 107.938, 261.775 111.509 M 198.732 136.991 C 188.118 138.880, 179.232 145.395, 173.930 155.174 L 170.500 161.500 170.500 235 L 170.500 308.500 173.294 314.190 C 176.657 321.038, 185.125 329.118, 191.483 331.547 C 193.967 332.495, 196 333.675, 196 334.167 C 196 334.660, 188.017 347.086, 178.260 361.781 C 168.503 376.477, 160.365 388.837, 160.176 389.250 C 159.988 389.662, 165.208 390, 171.778 390 L 183.722 390 196.042 371.938 C 202.818 362.004, 209.151 353.454, 210.115 352.938 C 212.943 351.425, 288.257 351.718, 290.217 353.250 C 291.097 353.938, 297.085 362.297, 303.525 371.826 C 309.964 381.355, 315.770 389.358, 316.427 389.611 C 317.085 389.863, 322.617 389.941, 328.721 389.785 L 339.820 389.500 322.343 363.500 C 312.730 349.200, 304.459 336.768, 303.963 335.872 C 303.226 334.544, 304.226 333.671, 309.403 331.122 C 316.959 327.403, 323.164 321.015, 326.840 313.175 L 329.500 307.500 329.783 237.618 C 330.031 176.133, 329.874 167.061, 328.472 162.118 C 325.424 151.368, 317.139 142.262, 306.799 138.297 C 303.050 136.860, 296.165 136.617, 253 136.396 C 225.775 136.256, 201.354 136.524, 198.732 136.991 M 228.655 145.829 C 227.446 147.165, 227 149.548, 227 154.674 C 227 165.191, 226.571 165, 250.257 165 C 273.695 165, 273 165.319, 273 154.584 C 273 143.774, 273.496 144, 249.826 144 C 232.189 144, 230.151 144.176, 228.655 145.829 M 201.749 173.377 C 196.438 174.846, 193.565 177.056, 191.190 181.498 C 189.122 185.366, 188.224 211.403, 189.939 217.773 C 191.435 223.329, 196.223 228.690, 200.832 229.970 C 203.077 230.593, 222.367 230.991, 250.538 230.994 C 296.315 231, 296.601 230.987, 300.980 228.750 C 307.974 225.176, 309.412 222.405, 310.043 211.290 C 310.342 206.027, 310.324 197.374, 310.004 192.061 C 309.336 180.997, 307.625 177.531, 301.270 174.373 C 297.773 172.635, 294.209 172.484, 252 172.281 C 216.934 172.113, 205.411 172.364, 201.749 173.377 M 0.428 250 C 0.428 262.375, 0.571 267.438, 0.747 261.250 C 0.922 255.063, 0.922 244.938, 0.747 238.750 C 0.571 232.563, 0.428 237.625, 0.428 250 M 200.315 284.071 C 193.026 286.251, 188.218 294.732, 189.955 302.347 C 193.853 319.430, 220.385 316.716, 220.385 299.234 C 220.385 288.571, 210.425 281.047, 200.315 284.071 M 286.966 285.250 C 281.994 287.760, 278.044 293.579, 278.016 298.434 C 277.992 302.858, 281.729 309.669, 285.439 311.962 C 290.168 314.885, 299.223 314.780, 303.703 311.750 C 307.324 309.301, 311 302.826, 311 298.896 C 311 297.536, 309.988 294.416, 308.750 291.962 C 306.239 286.982, 299.907 283, 294.500 283 C 292.808 283, 289.418 284.012, 286.966 285.250" stroke="none" fill="#7b2dcc" fill-rule="evenodd"/></svg>