<svg xmlns="http://www.w3.org/2000/svg" width="500" height="500" viewBox="0 0 500 500" version="1.1"><path d="M 168.500 93.930 C 157.524 99.217, 146.754 110.264, 141.134 122 L 138.500 127.500 138.229 218.221 C 137.961 308.264, 137.975 308.988, 140.071 315.212 C 142.350 321.976, 146.595 328.355, 152.673 334.147 C 156.809 338.088, 167.212 345, 169.010 345 C 169.618 345, 172.145 346.133, 174.626 347.518 L 179.137 350.037 254.319 349.768 L 329.500 349.500 335.397 346.738 C 343.918 342.747, 357.578 328.814, 362.101 319.500 L 365.500 312.500 365.500 220 L 365.500 127.500 362.098 120.500 C 357.724 111.500, 345.232 98.798, 336.500 94.472 L 330.500 91.500 252.500 91.270 L 174.500 91.040 168.500 93.930 M 164.500 140.413 C 162.850 141.156, 160.013 143.327, 158.196 145.236 L 154.891 148.708 154.918 188.034 L 154.945 227.360 158.685 231.190 C 160.742 233.296, 164.143 235.915, 166.243 237.010 C 169.968 238.951, 172.147 239, 254.996 239 L 339.930 239 343.512 235.855 C 349.953 230.200, 350 229.854, 350 188.500 C 350 148.165, 349.865 147.021, 344.507 142 L 341.839 139.500 254.670 139.281 C 183.226 139.101, 166.959 139.305, 164.500 140.413 M 168.840 261.022 C 159.516 265.947, 156.428 278.275, 162.156 287.700 C 166.350 294.600, 176.335 297.671, 184.471 294.564 C 198.572 289.179, 199.794 268.828, 186.470 261.282 C 181.438 258.432, 173.952 258.321, 168.840 261.022 M 318.382 260.531 C 311.645 263.485, 307.183 272.438, 308.449 280.458 C 310.317 292.282, 322.638 299.103, 333.746 294.462 C 338.704 292.390, 340.934 290.258, 343.119 285.500 C 347.504 275.951, 343.315 264.261, 334.128 260.413 C 329.947 258.661, 322.518 258.717, 318.382 260.531 M 168.500 375.570 C 153.100 386.804, 134.762 400.152, 127.750 405.233 C 120.738 410.313, 115 414.814, 115 415.235 C 115 415.656, 176.650 416, 252 416 C 327.350 416, 388.980 415.663, 388.956 415.250 C 388.932 414.837, 384.545 411.476, 379.206 407.781 C 373.868 404.085, 365.450 398.118, 360.500 394.520 C 355.550 390.923, 349.025 386.208, 346 384.043 C 342.975 381.878, 332.643 374.458, 323.041 367.554 L 305.582 355 295.791 355 C 284.428 355, 283.731 355.774, 290.566 360.802 C 293.034 362.618, 294.790 364.531, 294.468 365.052 C 294.114 365.625, 277.475 366, 252.441 366 C 219.940 366, 211.006 365.730, 211.028 364.750 C 211.052 363.647, 214.909 360.344, 218.878 358.028 C 222.322 356.018, 218.478 355.003, 207.691 355.072 L 196.500 355.144 168.500 375.570 M 186.250 381.152 C 183.363 383.417, 181 385.660, 181 386.135 C 181 386.614, 213.162 387, 252.969 387 C 310.136 387, 324.837 386.743, 324.451 385.750 C 324.183 385.063, 321.349 382.813, 318.152 380.750 L 312.340 377 251.920 377.017 L 191.500 377.034 186.250 381.152 M 151.500 404.689 C 147.100 408.276, 143.372 411.749, 143.215 412.406 C 142.995 413.330, 168.016 413.511, 253.215 413.205 C 313.872 412.986, 363.562 412.738, 363.637 412.654 C 363.712 412.569, 360.140 409.238, 355.698 405.250 L 347.622 398 253.561 398.083 L 159.500 398.166 151.500 404.689" stroke="none" fill="#f9f9fc" fill-rule="evenodd"/><path d="M 230.490 0.865 C 229.946 1.385, 225.900 2.071, 221.500 2.389 C 207.629 3.391, 199.573 4.521, 197.316 5.781 C 196.114 6.451, 193.778 7, 192.125 7 C 190.471 7, 188.840 7.450, 188.500 8 C 188.160 8.550, 186.731 9, 185.325 9 C 182.810 9, 174.164 11.459, 170.764 13.141 C 169.809 13.613, 168.207 14, 167.205 14 C 166.202 14, 164.509 14.661, 163.441 15.468 C 162.374 16.276, 160.782 16.951, 159.904 16.968 C 159.026 16.986, 157.001 17.628, 155.404 18.395 C 153.807 19.162, 148.900 21.439, 144.500 23.455 C 140.100 25.471, 135.825 27.535, 135 28.043 C 134.175 28.550, 131.676 29.844, 129.446 30.918 C 127.216 31.992, 123.009 34.475, 120.096 36.436 C 117.182 38.396, 114.394 40, 113.900 40 C 113.405 40, 113 40.450, 113 41 C 113 41.550, 112.433 42, 111.740 42 C 111.047 42, 109.266 43.125, 107.783 44.500 C 106.301 45.875, 104.726 47, 104.283 47 C 103.841 47, 102.359 48.033, 100.990 49.295 C 99.620 50.557, 95.914 53.496, 92.752 55.825 C 85.051 61.499, 59.514 87.005, 54.030 94.500 C 51.615 97.800, 49.373 100.725, 49.046 101 C 48.080 101.814, 35.430 121.197, 33.384 125 C 32.348 126.925, 31.275 128.725, 31 129 C 30.525 129.475, 25.325 139.989, 19.617 152.014 C 18.178 155.047, 16.986 158.197, 16.968 159.014 C 16.951 159.831, 16.276 161.374, 15.468 162.441 C 14.661 163.509, 14 165.202, 14 166.205 C 14 167.207, 13.610 168.809, 13.134 169.764 C 11.522 172.996, 9.752 178.484, 9.264 181.759 C 8.997 183.552, 8.379 185.266, 7.890 185.568 C 7.400 185.871, 7 187.696, 7 189.625 C 7 191.553, 6.492 194.082, 5.870 195.243 C 4.778 197.284, 4.067 201.106, 1.827 217 C 0.449 226.778, 0.461 273.349, 1.845 283 C 2.436 287.125, 3.295 293.200, 3.753 296.500 C 4.211 299.800, 5.129 303.483, 5.793 304.684 C 6.457 305.886, 7 308.447, 7 310.375 C 7 312.304, 7.400 314.129, 7.890 314.432 C 8.379 314.734, 8.997 316.448, 9.264 318.241 C 9.752 321.516, 11.522 327.004, 13.134 330.236 C 13.610 331.191, 14 332.793, 14 333.795 C 14 334.798, 14.661 336.491, 15.468 337.559 C 16.276 338.626, 16.951 340.246, 16.968 341.158 C 16.986 342.069, 18.067 344.994, 19.371 347.658 C 20.675 350.321, 23.684 356.550, 26.058 361.500 C 28.432 366.450, 30.741 370.650, 31.188 370.833 C 31.634 371.017, 32 371.776, 32 372.522 C 32 373.998, 43.175 390.880, 52.359 403.278 C 59.486 412.900, 87.631 441.342, 94.140 445.500 C 95.001 446.050, 99.122 449.087, 103.299 452.250 C 107.476 455.412, 111.367 458, 111.947 458 C 112.526 458, 113 458.398, 113 458.883 C 113 459.369, 113.787 460.031, 114.750 460.354 C 116.451 460.925, 119.990 462.990, 121 464 C 121.821 464.821, 125.244 466.835, 129.500 469 C 131.700 470.119, 134.175 471.436, 135 471.926 C 135.825 472.416, 140.550 474.713, 145.500 477.031 C 150.450 479.349, 155.281 481.641, 156.236 482.123 C 157.191 482.605, 158.639 483, 159.453 483 C 160.266 483, 162.635 483.737, 164.716 484.639 C 166.797 485.540, 169.400 486.598, 170.500 486.989 C 171.600 487.381, 174.075 488.275, 176 488.976 C 177.925 489.677, 180.967 490.469, 182.759 490.736 C 184.552 491.003, 186.266 491.621, 186.568 492.110 C 186.871 492.600, 188.696 493, 190.625 493 C 192.553 493, 195.100 493.518, 196.283 494.152 C 198.476 495.325, 204.454 496.313, 220.500 498.155 C 232.105 499.487, 266.895 499.487, 278.500 498.155 C 294.546 496.313, 300.524 495.325, 302.717 494.152 C 303.900 493.518, 306.447 493, 308.375 493 C 310.304 493, 312.129 492.600, 312.432 492.110 C 312.734 491.621, 314.448 491.003, 316.241 490.736 C 319.516 490.248, 325.004 488.478, 328.236 486.866 C 329.191 486.390, 330.793 486, 331.795 486 C 332.798 486, 334.491 485.339, 335.559 484.532 C 336.626 483.724, 338.294 483.049, 339.264 483.032 C 341.037 483, 341.717 482.733, 347.831 479.669 C 349.663 478.751, 351.763 478, 352.498 478 C 353.232 478, 353.983 477.662, 354.167 477.250 C 354.473 476.561, 359.401 473.983, 363 472.629 C 363.825 472.318, 366.750 470.706, 369.500 469.045 C 372.250 467.385, 375.175 465.711, 376 465.326 C 380.507 463.223, 403.536 447.360, 407.619 443.546 C 408.235 442.971, 411.138 440.475, 414.070 438 C 421.992 431.313, 436.658 416.266, 441.361 410 C 443.631 406.975, 445.745 404.275, 446.059 404 C 448.298 402.036, 463.433 380.039, 465.324 376 C 465.710 375.175, 467.371 372.250, 469.015 369.500 C 472.296 364.012, 478 352.317, 478 351.079 C 478 350.649, 479.125 348.182, 480.500 345.596 C 481.875 343.010, 483.014 340.130, 483.032 339.197 C 483.049 338.264, 483.724 336.626, 484.532 335.559 C 485.339 334.491, 486 332.798, 486 331.795 C 486 330.793, 486.387 329.191, 486.859 328.236 C 488.394 325.133, 491 316.285, 491 314.175 C 491 313.044, 491.450 311.840, 492 311.500 C 492.550 311.160, 493 309.363, 493 307.506 C 493 305.649, 493.524 302.863, 494.165 301.315 C 495.448 298.216, 496.536 290.720, 497.912 275.500 C 498.410 270, 498.929 265.275, 499.066 265 C 499.202 264.725, 499.623 266.750, 500 269.500 C 500.377 272.250, 500.681 263.025, 500.675 249 C 500.669 234.975, 500.385 226.200, 500.045 229.500 C 499.277 236.941, 498.316 234.230, 497.563 222.500 C 496.835 211.167, 495.522 201.963, 494.165 198.685 C 493.524 197.137, 493 194.351, 493 192.494 C 493 190.637, 492.550 188.840, 492 188.500 C 491.450 188.160, 491 186.420, 491 184.632 C 491 182.845, 490.339 180.509, 489.532 179.441 C 488.724 178.374, 488.049 176.289, 488.032 174.809 C 488.014 173.329, 487.550 171.840, 487 171.500 C 486.450 171.160, 486 169.870, 486 168.632 C 486 167.395, 485.339 165.509, 484.532 164.441 C 483.724 163.374, 483.049 161.754, 483.032 160.842 C 483.014 159.931, 481.938 157.006, 480.640 154.342 C 477.755 148.424, 473.426 139.037, 472.642 137 C 472.324 136.175, 470.706 133.250, 469.045 130.500 C 467.385 127.750, 465.710 124.825, 465.324 124 C 462.657 118.304, 445.332 94.239, 437.967 86 C 426.027 72.643, 407.308 55, 405.076 55 C 404.576 55, 404.017 54.625, 403.833 54.166 C 403.173 52.515, 381.125 37.076, 376 34.676 C 375.175 34.290, 372.250 32.637, 369.500 31.004 C 363.069 27.185, 350.622 21.191, 343 18.244 C 341.625 17.712, 338.797 16.540, 336.716 15.639 C 334.635 14.737, 332.266 14, 331.453 14 C 330.639 14, 329.191 13.595, 328.236 13.100 C 327.281 12.604, 323.800 11.438, 320.500 10.508 C 317.200 9.577, 313.118 8.407, 311.429 7.908 C 309.740 7.409, 307.348 7, 306.113 7 C 304.879 7, 302.886 6.451, 301.684 5.781 C 300.483 5.110, 296.350 4.213, 292.500 3.787 C 288.650 3.362, 281.675 2.518, 277 1.913 C 265.500 0.425, 231.748 -0.336, 230.490 0.865 M 168.500 93.930 C 157.524 99.217, 146.754 110.264, 141.134 122 L 138.500 127.500 138.229 218.221 C 137.961 308.264, 137.975 308.988, 140.071 315.212 C 142.350 321.976, 146.595 328.355, 152.673 334.147 C 156.809 338.088, 167.212 345, 169.010 345 C 169.618 345, 172.145 346.133, 174.626 347.518 L 179.137 350.037 254.319 349.768 L 329.500 349.500 335.397 346.738 C 343.918 342.747, 357.578 328.814, 362.101 319.500 L 365.500 312.500 365.500 220 L 365.500 127.500 362.098 120.500 C 357.724 111.500, 345.232 98.798, 336.500 94.472 L 330.500 91.500 252.500 91.270 L 174.500 91.040 168.500 93.930 M 164.500 140.413 C 162.850 141.156, 160.013 143.327, 158.196 145.236 L 154.891 148.708 154.918 188.034 L 154.945 227.360 158.685 231.190 C 160.742 233.296, 164.143 235.915, 166.243 237.010 C 169.968 238.951, 172.147 239, 254.996 239 L 339.930 239 343.512 235.855 C 349.953 230.200, 350 229.854, 350 188.500 C 350 148.165, 349.865 147.021, 344.507 142 L 341.839 139.500 254.670 139.281 C 183.226 139.101, 166.959 139.305, 164.500 140.413 M 0.435 250 C 0.435 264.025, 0.575 269.762, 0.747 262.750 C 0.919 255.738, 0.919 244.263, 0.747 237.250 C 0.575 230.238, 0.435 235.975, 0.435 250 M 168.840 261.022 C 159.516 265.947, 156.428 278.275, 162.156 287.700 C 166.350 294.600, 176.335 297.671, 184.471 294.564 C 198.572 289.179, 199.794 268.828, 186.470 261.282 C 181.438 258.432, 173.952 258.321, 168.840 261.022 M 318.382 260.531 C 311.645 263.485, 307.183 272.438, 308.449 280.458 C 310.317 292.282, 322.638 299.103, 333.746 294.462 C 338.704 292.390, 340.934 290.258, 343.119 285.500 C 347.504 275.951, 343.315 264.261, 334.128 260.413 C 329.947 258.661, 322.518 258.717, 318.382 260.531 M 168.500 375.570 C 153.100 386.804, 134.762 400.152, 127.750 405.233 C 120.738 410.313, 115 414.814, 115 415.235 C 115 415.656, 176.650 416, 252 416 C 327.350 416, 388.980 415.663, 388.956 415.250 C 388.932 414.837, 384.545 411.476, 379.206 407.781 C 373.868 404.085, 365.450 398.118, 360.500 394.520 C 355.550 390.923, 349.025 386.208, 346 384.043 C 342.975 381.878, 332.643 374.458, 323.041 367.554 L 305.582 355 295.791 355 C 284.428 355, 283.731 355.774, 290.566 360.802 C 293.034 362.618, 294.790 364.531, 294.468 365.052 C 294.114 365.625, 277.475 366, 252.441 366 C 219.940 366, 211.006 365.730, 211.028 364.750 C 211.052 363.647, 214.909 360.344, 218.878 358.028 C 222.322 356.018, 218.478 355.003, 207.691 355.072 L 196.500 355.144 168.500 375.570 M 186.250 381.152 C 183.363 383.417, 181 385.660, 181 386.135 C 181 386.614, 213.162 387, 252.969 387 C 310.136 387, 324.837 386.743, 324.451 385.750 C 324.183 385.063, 321.349 382.813, 318.152 380.750 L 312.340 377 251.920 377.017 L 191.500 377.034 186.250 381.152 M 151.500 404.689 C 147.100 408.276, 143.372 411.749, 143.215 412.406 C 142.995 413.330, 168.016 413.511, 253.215 413.205 C 313.872 412.986, 363.562 412.738, 363.637 412.654 C 363.712 412.569, 360.140 409.238, 355.698 405.250 L 347.622 398 253.561 398.083 L 159.500 398.166 151.500 404.689" stroke="none" fill="#a4b4fc" fill-rule="evenodd"/></svg>
